<svg width="631" height="521" viewBox="0 0 631 521" fill="none" xmlns="http://www.w3.org/2000/svg">
<rect x="2" y="2" width="627" height="59.2376" fill="#8D2C30"/>
<path d="M426 61.2376V519M2 148.478H629M2 61.2376H629M2 2H629V519H2V2Z" stroke="black" stroke-width="3"/>
<path d="M113.563 18.8105H117.904L124.295 37.0796L130.687 18.8105H135.028L126.039 43.6934H122.552L113.563 18.8105ZM111.222 18.8105H115.545L116.332 36.6182V43.6934H111.222V18.8105ZM133.045 18.8105H137.386V43.6934H132.259V36.6182L133.045 18.8105ZM152.306 23.0659L145.538 43.6934H140.086L149.332 18.8105H152.801L152.306 23.0659ZM157.928 43.6934L151.144 23.0659L150.597 18.8105H154.1L163.397 43.6934H157.928ZM157.621 34.4307V38.4468H144.479V34.4307H157.621ZM174.71 18.8105V43.6934H169.601V18.8105H174.71ZM182.367 18.8105V22.8267H162.064V18.8105H182.367ZM201.986 39.6943V43.6934H188.741V39.6943H201.986ZM190.416 18.8105V43.6934H185.289V18.8105H190.416ZM200.26 28.9448V32.8413H188.741V28.9448H200.26ZM201.969 18.8105V22.8267H188.741V18.8105H201.969ZM204.977 18.8105H214.256C216.159 18.8105 217.794 19.0954 219.161 19.665C220.54 20.2347 221.599 21.0778 222.34 22.1943C223.08 23.3109 223.451 24.6838 223.451 26.313C223.451 27.646 223.223 28.791 222.767 29.748C222.323 30.6937 221.69 31.4855 220.87 32.1235C220.061 32.7502 219.11 33.2515 218.016 33.6274L216.393 34.4819H208.326L208.292 30.4829H214.291C215.191 30.4829 215.937 30.3234 216.529 30.0044C217.122 29.6854 217.566 29.241 217.862 28.6714C218.17 28.1017 218.324 27.4409 218.324 26.689C218.324 25.8914 218.176 25.2021 217.879 24.6211C217.583 24.04 217.133 23.5957 216.529 23.2881C215.925 22.9805 215.168 22.8267 214.256 22.8267H210.104V43.6934H204.977V18.8105ZM218.888 43.6934L213.214 32.6021L218.631 32.5679L224.374 43.4541V43.6934H218.888ZM232.85 18.8105V43.6934H227.74V18.8105H232.85ZM248.077 23.0659L241.31 43.6934H235.858L245.104 18.8105H248.573L248.077 23.0659ZM253.7 43.6934L246.915 23.0659L246.368 18.8105H249.872L259.168 43.6934H253.7ZM253.392 34.4307V38.4468H240.25V34.4307H253.392ZM277.472 39.6943V43.6934H264.945V39.6943H277.472ZM266.603 18.8105V43.6934H261.476V18.8105H266.603ZM294.579 18.8105V43.6934H289.469V18.8105H294.579ZM319.632 18.8105V43.6934H314.505L304.508 27.0137V43.6934H299.381V18.8105H304.508L314.522 35.5073V18.8105H319.632ZM329.22 18.8105V43.6934H324.093V18.8105H329.22ZM339.132 29.4404V33.4395H327.818V29.4404H339.132ZM340.328 18.8105V22.8267H327.818V18.8105H340.328ZM363.741 30.6709V31.8501C363.741 33.7414 363.485 35.439 362.972 36.9429C362.459 38.4468 361.736 39.7285 360.802 40.7881C359.868 41.8363 358.751 42.6395 357.452 43.1978C356.165 43.756 354.735 44.0352 353.163 44.0352C351.602 44.0352 350.172 43.756 348.873 43.1978C347.586 42.6395 346.469 41.8363 345.523 40.7881C344.578 39.7285 343.843 38.4468 343.319 36.9429C342.806 35.439 342.55 33.7414 342.55 31.8501V30.6709C342.55 28.7682 342.806 27.0706 343.319 25.5781C343.832 24.0742 344.555 22.7925 345.489 21.7329C346.435 20.6733 347.551 19.8644 348.839 19.3062C350.138 18.7479 351.568 18.4688 353.128 18.4688C354.701 18.4688 356.131 18.7479 357.418 19.3062C358.717 19.8644 359.833 20.6733 360.768 21.7329C361.713 22.7925 362.442 24.0742 362.955 25.5781C363.479 27.0706 363.741 28.7682 363.741 30.6709ZM358.563 31.8501V30.6367C358.563 29.3151 358.443 28.153 358.204 27.1504C357.965 26.1478 357.612 25.3047 357.145 24.6211C356.677 23.9375 356.108 23.4248 355.436 23.083C354.763 22.7298 353.994 22.5532 353.128 22.5532C352.263 22.5532 351.493 22.7298 350.821 23.083C350.16 23.4248 349.597 23.9375 349.129 24.6211C348.674 25.3047 348.326 26.1478 348.087 27.1504C347.848 28.153 347.728 29.3151 347.728 30.6367V31.8501C347.728 33.1603 347.848 34.3224 348.087 35.3364C348.326 36.339 348.679 37.1878 349.146 37.8828C349.614 38.5664 350.183 39.0848 350.855 39.438C351.528 39.7912 352.297 39.9678 353.163 39.9678C354.028 39.9678 354.798 39.7912 355.47 39.438C356.142 39.0848 356.706 38.5664 357.162 37.8828C357.617 37.1878 357.965 36.339 358.204 35.3364C358.443 34.3224 358.563 33.1603 358.563 31.8501ZM367.433 18.8105H376.712C378.615 18.8105 380.25 19.0954 381.617 19.665C382.996 20.2347 384.055 21.0778 384.796 22.1943C385.536 23.3109 385.907 24.6838 385.907 26.313C385.907 27.646 385.679 28.791 385.223 29.748C384.779 30.6937 384.146 31.4855 383.326 32.1235C382.517 32.7502 381.566 33.2515 380.472 33.6274L378.849 34.4819H370.782L370.748 30.4829H376.747C377.647 30.4829 378.393 30.3234 378.985 30.0044C379.578 29.6854 380.022 29.241 380.318 28.6714C380.626 28.1017 380.78 27.4409 380.78 26.689C380.78 25.8914 380.632 25.2021 380.335 24.6211C380.039 24.04 379.589 23.5957 378.985 23.2881C378.382 22.9805 377.624 22.8267 376.712 22.8267H372.56V43.6934H367.433V18.8105ZM381.344 43.6934L375.67 32.6021L381.087 32.5679L386.83 43.4541V43.6934H381.344ZM392.196 18.8105H396.537L402.928 37.0796L409.32 18.8105H413.661L404.671 43.6934H401.185L392.196 18.8105ZM389.854 18.8105H394.178L394.964 36.6182V43.6934H389.854V18.8105ZM411.678 18.8105H416.019V43.6934H410.892V36.6182L411.678 18.8105ZM430.938 23.0659L424.171 43.6934H418.719L427.965 18.8105H431.434L430.938 23.0659ZM436.561 43.6934L429.776 23.0659L429.229 18.8105H432.733L442.03 43.6934H436.561ZM436.253 34.4307V38.4468H423.111V34.4307H436.253ZM453.343 18.8105V43.6934H448.233V18.8105H453.343ZM461 18.8105V22.8267H440.697V18.8105H461ZM469.374 18.8105V43.6934H464.264V18.8105H469.374ZM494.615 30.6709V31.8501C494.615 33.7414 494.359 35.439 493.846 36.9429C493.333 38.4468 492.61 39.7285 491.676 40.7881C490.742 41.8363 489.625 42.6395 488.326 43.1978C487.039 43.756 485.609 44.0352 484.037 44.0352C482.476 44.0352 481.046 43.756 479.747 43.1978C478.46 42.6395 477.343 41.8363 476.397 40.7881C475.452 39.7285 474.717 38.4468 474.193 36.9429C473.68 35.439 473.424 33.7414 473.424 31.8501V30.6709C473.424 28.7682 473.68 27.0706 474.193 25.5781C474.706 24.0742 475.429 22.7925 476.363 21.7329C477.309 20.6733 478.425 19.8644 479.713 19.3062C481.012 18.7479 482.442 18.4688 484.002 18.4688C485.575 18.4688 487.005 18.7479 488.292 19.3062C489.591 19.8644 490.707 20.6733 491.642 21.7329C492.587 22.7925 493.316 24.0742 493.829 25.5781C494.353 27.0706 494.615 28.7682 494.615 30.6709ZM489.437 31.8501V30.6367C489.437 29.3151 489.317 28.153 489.078 27.1504C488.839 26.1478 488.486 25.3047 488.019 24.6211C487.551 23.9375 486.982 23.4248 486.31 23.083C485.637 22.7298 484.868 22.5532 484.002 22.5532C483.137 22.5532 482.368 22.7298 481.695 23.083C481.035 23.4248 480.471 23.9375 480.003 24.6211C479.548 25.3047 479.2 26.1478 478.961 27.1504C478.722 28.153 478.602 29.3151 478.602 30.6367V31.8501C478.602 33.1603 478.722 34.3224 478.961 35.3364C479.2 36.339 479.553 37.1878 480.021 37.8828C480.488 38.5664 481.057 39.0848 481.729 39.438C482.402 39.7912 483.171 39.9678 484.037 39.9678C484.903 39.9678 485.672 39.7912 486.344 39.438C487.016 39.0848 487.58 38.5664 488.036 37.8828C488.491 37.1878 488.839 36.339 489.078 35.3364C489.317 34.3224 489.437 33.1603 489.437 31.8501ZM518.558 18.8105V43.6934H513.431L503.434 27.0137V43.6934H498.307V18.8105H503.434L513.448 35.5073V18.8105H518.558Z" fill="white"/>
<path d="M106.65 94.2576H110.123L115.236 108.873L120.35 94.2576H123.822L116.631 114.164H113.842L106.65 94.2576ZM104.777 94.2576H108.236L108.865 108.504V114.164H104.777V94.2576ZM122.236 94.2576H125.709V114.164H121.607V108.504L122.236 94.2576ZM137.645 97.6619L132.23 114.164H127.869L135.266 94.2576H138.041L137.645 97.6619ZM142.143 114.164L136.715 97.6619L136.277 94.2576H139.08L146.518 114.164H142.143ZM141.896 106.754V109.967H131.383V106.754H141.896ZM155.568 94.2576V114.164H151.48V94.2576H155.568ZM161.693 94.2576V97.4705H145.451V94.2576H161.693ZM177.389 110.965V114.164H166.793V110.965H177.389ZM168.133 94.2576V114.164H164.031V94.2576H168.133ZM176.008 102.365V105.482H166.793V102.365H176.008ZM177.375 94.2576V97.4705H166.793V94.2576H177.375ZM179.781 94.2576H187.205C188.727 94.2576 190.035 94.4854 191.129 94.9412C192.232 95.3969 193.079 96.0714 193.672 96.9646C194.264 97.8578 194.561 98.9561 194.561 100.26C194.561 101.326 194.378 102.242 194.014 103.008C193.658 103.764 193.152 104.398 192.496 104.908C191.849 105.409 191.088 105.81 190.213 106.111L188.914 106.795H182.461L182.434 103.595H187.232C187.952 103.595 188.549 103.468 189.023 103.213C189.497 102.957 189.853 102.602 190.09 102.146C190.336 101.691 190.459 101.162 190.459 100.56C190.459 99.9223 190.34 99.3708 190.104 98.906C189.867 98.4412 189.507 98.0857 189.023 97.8396C188.54 97.5935 187.934 97.4705 187.205 97.4705H183.883V114.164H179.781V94.2576ZM190.91 114.164L186.371 105.291L190.705 105.263L195.299 113.972V114.164H190.91ZM202.08 94.2576V114.164H197.992V94.2576H202.08ZM214.262 97.6619L208.848 114.164H204.486L211.883 94.2576H214.658L214.262 97.6619ZM218.76 114.164L213.332 97.6619L212.895 94.2576H215.697L223.135 114.164H218.76ZM218.514 106.754V109.967H208V106.754H218.514ZM237.777 110.965V114.164H227.756V110.965H237.777ZM229.082 94.2576V114.164H224.98V94.2576H229.082ZM250.492 108.955C250.492 108.599 250.438 108.28 250.328 107.998C250.228 107.706 250.036 107.442 249.754 107.205C249.471 106.959 249.075 106.717 248.564 106.48C248.054 106.243 247.393 105.997 246.582 105.742C245.68 105.45 244.823 105.122 244.012 104.758C243.21 104.393 242.499 103.969 241.879 103.486C241.268 102.994 240.785 102.424 240.43 101.777C240.083 101.13 239.91 100.378 239.91 99.5212C239.91 98.6918 240.092 97.9399 240.457 97.2654C240.822 96.5818 241.332 95.9985 241.988 95.5154C242.645 95.0232 243.419 94.6449 244.312 94.3806C245.215 94.1163 246.204 93.9841 247.279 93.9841C248.747 93.9841 250.027 94.2485 251.121 94.7771C252.215 95.3057 253.062 96.0304 253.664 96.9509C254.275 97.8715 254.58 98.9242 254.58 100.109H250.506C250.506 99.5258 250.383 99.0154 250.137 98.5779C249.9 98.1313 249.535 97.7804 249.043 97.5251C248.56 97.2699 247.949 97.1423 247.211 97.1423C246.5 97.1423 245.908 97.2517 245.434 97.4705C244.96 97.6801 244.604 97.9672 244.367 98.3318C244.13 98.6873 244.012 99.0883 244.012 99.5349C244.012 99.8722 244.094 100.177 244.258 100.451C244.431 100.724 244.686 100.98 245.023 101.217C245.361 101.454 245.775 101.677 246.268 101.886C246.76 102.096 247.329 102.301 247.977 102.502C249.061 102.83 250.014 103.199 250.834 103.609C251.663 104.019 252.356 104.48 252.912 104.99C253.468 105.5 253.887 106.079 254.17 106.726C254.452 107.373 254.594 108.107 254.594 108.927C254.594 109.793 254.425 110.568 254.088 111.252C253.751 111.935 253.263 112.514 252.625 112.988C251.987 113.462 251.226 113.822 250.342 114.068C249.458 114.314 248.469 114.437 247.375 114.437C246.391 114.437 245.42 114.31 244.463 114.054C243.506 113.79 242.635 113.394 241.852 112.865C241.077 112.336 240.457 111.662 239.992 110.842C239.527 110.021 239.295 109.051 239.295 107.929H243.41C243.41 108.549 243.506 109.073 243.697 109.502C243.889 109.93 244.158 110.276 244.504 110.541C244.859 110.805 245.279 110.997 245.762 111.115C246.254 111.233 246.792 111.293 247.375 111.293C248.086 111.293 248.669 111.192 249.125 110.992C249.59 110.791 249.932 110.513 250.15 110.158C250.378 109.802 250.492 109.401 250.492 108.955Z" fill="#8D2C30"/>
<path d="M45.3281 197.458H47.9531C47.8164 198.716 47.4564 199.841 46.873 200.835C46.2897 201.828 45.4648 202.617 44.3984 203.2C43.332 203.774 42.0013 204.062 40.4062 204.062C39.2396 204.062 38.1777 203.843 37.2207 203.405C36.2728 202.968 35.457 202.348 34.7734 201.546C34.0898 200.735 33.5612 199.764 33.1875 198.634C32.8229 197.494 32.6406 196.228 32.6406 194.833V192.851C32.6406 191.456 32.8229 190.194 33.1875 189.063C33.5612 187.924 34.0944 186.949 34.7871 186.138C35.4889 185.326 36.332 184.702 37.3164 184.265C38.3008 183.827 39.4082 183.608 40.6387 183.608C42.1426 183.608 43.4141 183.891 44.4531 184.456C45.4922 185.021 46.2988 185.805 46.873 186.808C47.4564 187.801 47.8164 188.954 47.9531 190.267H45.3281C45.2005 189.337 44.9635 188.539 44.6172 187.874C44.2708 187.2 43.7786 186.68 43.1406 186.315C42.5026 185.951 41.6686 185.769 40.6387 185.769C39.7546 185.769 38.9753 185.937 38.3008 186.274C37.6354 186.612 37.0749 187.09 36.6191 187.71C36.1725 188.33 35.8353 189.073 35.6074 189.938C35.3796 190.804 35.2656 191.766 35.2656 192.823V194.833C35.2656 195.808 35.3659 196.724 35.5664 197.581C35.776 198.438 36.0905 199.19 36.5098 199.837C36.929 200.484 37.4622 200.994 38.1094 201.368C38.7565 201.733 39.5221 201.915 40.4062 201.915C41.5273 201.915 42.4206 201.737 43.0859 201.382C43.7513 201.026 44.2526 200.516 44.5898 199.851C44.9362 199.185 45.1823 198.388 45.3281 197.458ZM66.875 193.206V194.464C66.875 195.959 66.6882 197.299 66.3145 198.483C65.9408 199.668 65.403 200.675 64.7012 201.505C63.9993 202.334 63.1562 202.968 62.1719 203.405C61.1966 203.843 60.1029 204.062 58.8906 204.062C57.7148 204.062 56.6348 203.843 55.6504 203.405C54.6751 202.968 53.8275 202.334 53.1074 201.505C52.3965 200.675 51.8451 199.668 51.4531 198.483C51.0612 197.299 50.8652 195.959 50.8652 194.464V193.206C50.8652 191.711 51.0566 190.376 51.4395 189.2C51.8314 188.015 52.3828 187.008 53.0938 186.179C53.8047 185.34 54.6478 184.702 55.623 184.265C56.6074 183.827 57.6875 183.608 58.8633 183.608C60.0755 183.608 61.1693 183.827 62.1445 184.265C63.1289 184.702 63.972 185.34 64.6738 186.179C65.3848 187.008 65.9271 188.015 66.3008 189.2C66.6836 190.376 66.875 191.711 66.875 193.206ZM64.2637 194.464V193.179C64.2637 191.994 64.1406 190.946 63.8945 190.034C63.6576 189.123 63.3066 188.357 62.8418 187.737C62.377 187.118 61.8073 186.648 61.1328 186.329C60.4674 186.01 59.7109 185.851 58.8633 185.851C58.043 185.851 57.3001 186.01 56.6348 186.329C55.9785 186.648 55.4134 187.118 54.9395 187.737C54.4746 188.357 54.1146 189.123 53.8594 190.034C53.6042 190.946 53.4766 191.994 53.4766 193.179V194.464C53.4766 195.658 53.6042 196.715 53.8594 197.636C54.1146 198.547 54.4792 199.317 54.9531 199.946C55.4362 200.566 56.0059 201.035 56.6621 201.354C57.3275 201.674 58.0703 201.833 58.8906 201.833C59.7474 201.833 60.5085 201.674 61.1738 201.354C61.8392 201.035 62.3997 200.566 62.8555 199.946C63.3203 199.317 63.6712 198.547 63.9082 197.636C64.1452 196.715 64.2637 195.658 64.2637 194.464ZM76.0625 197.772L80.0137 183.882H81.9277L80.8203 189.282L76.5684 203.788H74.668L76.0625 197.772ZM71.9746 183.882L75.1191 197.499L76.0625 203.788H74.1758L69.3496 183.882H71.9746ZM87.041 197.485L90.1172 183.882H92.7559L87.9434 203.788H86.0566L87.041 197.485ZM82.2148 183.882L86.0566 197.772L87.4512 203.788H85.5508L81.4492 189.282L80.3281 183.882H82.2148ZM108.014 203.788H103.857L103.885 201.642H108.014C109.436 201.642 110.62 201.345 111.568 200.753C112.516 200.151 113.227 199.313 113.701 198.237C114.184 197.153 114.426 195.886 114.426 194.437V193.22C114.426 192.08 114.289 191.069 114.016 190.185C113.742 189.291 113.341 188.539 112.812 187.929C112.284 187.309 111.637 186.84 110.871 186.521C110.115 186.201 109.244 186.042 108.26 186.042H103.775V183.882H108.26C109.563 183.882 110.753 184.101 111.828 184.538C112.904 184.966 113.829 185.591 114.604 186.411C115.387 187.222 115.989 188.207 116.408 189.364C116.827 190.513 117.037 191.807 117.037 193.247V194.437C117.037 195.877 116.827 197.175 116.408 198.333C115.989 199.481 115.383 200.461 114.59 201.272C113.806 202.084 112.858 202.708 111.746 203.146C110.643 203.574 109.399 203.788 108.014 203.788ZM105.266 183.882V203.788H102.627V183.882H105.266ZM132.391 183.882H135.016V197.349C135.016 198.843 134.683 200.088 134.018 201.081C133.352 202.075 132.468 202.822 131.365 203.323C130.271 203.815 129.082 204.062 127.797 204.062C126.448 204.062 125.227 203.815 124.133 203.323C123.048 202.822 122.187 202.075 121.549 201.081C120.92 200.088 120.605 198.843 120.605 197.349V183.882H123.217V197.349C123.217 198.388 123.408 199.244 123.791 199.919C124.174 200.593 124.707 201.095 125.391 201.423C126.083 201.751 126.885 201.915 127.797 201.915C128.717 201.915 129.52 201.751 130.203 201.423C130.896 201.095 131.434 200.593 131.816 199.919C132.199 199.244 132.391 198.388 132.391 197.349V183.882ZM154.471 183.882V203.788H151.818L141.797 188.435V203.788H139.158V183.882H141.797L151.859 199.276V183.882H154.471ZM173.857 193.876V201.163C173.611 201.528 173.219 201.938 172.682 202.394C172.144 202.84 171.401 203.232 170.453 203.569C169.514 203.897 168.302 204.062 166.816 204.062C165.604 204.062 164.488 203.852 163.467 203.433C162.455 203.004 161.576 202.384 160.828 201.573C160.09 200.753 159.516 199.759 159.105 198.593C158.704 197.417 158.504 196.086 158.504 194.601V193.056C158.504 191.57 158.677 190.244 159.023 189.077C159.379 187.91 159.898 186.922 160.582 186.11C161.266 185.29 162.104 184.67 163.098 184.251C164.091 183.823 165.23 183.608 166.516 183.608C168.038 183.608 169.309 183.873 170.33 184.401C171.36 184.921 172.162 185.641 172.736 186.562C173.32 187.482 173.693 188.53 173.857 189.706H171.219C171.1 188.986 170.863 188.33 170.508 187.737C170.161 187.145 169.665 186.671 169.018 186.315C168.37 185.951 167.536 185.769 166.516 185.769C165.595 185.769 164.798 185.937 164.123 186.274C163.449 186.612 162.893 187.095 162.455 187.724C162.018 188.353 161.689 189.114 161.471 190.007C161.261 190.9 161.156 191.907 161.156 193.028V194.601C161.156 195.749 161.288 196.774 161.553 197.677C161.826 198.579 162.214 199.349 162.715 199.987C163.216 200.616 163.813 201.095 164.506 201.423C165.208 201.751 165.982 201.915 166.83 201.915C167.769 201.915 168.53 201.838 169.113 201.683C169.697 201.519 170.152 201.327 170.48 201.108C170.809 200.881 171.059 200.666 171.232 200.466V196.009H166.625V193.876H173.857ZM45.3281 252.458H47.9531C47.8164 253.716 47.4564 254.841 46.873 255.835C46.2897 256.828 45.4648 257.617 44.3984 258.2C43.332 258.774 42.0013 259.062 40.4062 259.062C39.2396 259.062 38.1777 258.843 37.2207 258.405C36.2728 257.968 35.457 257.348 34.7734 256.546C34.0898 255.735 33.5612 254.764 33.1875 253.634C32.8229 252.494 32.6406 251.228 32.6406 249.833V247.851C32.6406 246.456 32.8229 245.194 33.1875 244.063C33.5612 242.924 34.0944 241.949 34.7871 241.138C35.4889 240.326 36.332 239.702 37.3164 239.265C38.3008 238.827 39.4082 238.608 40.6387 238.608C42.1426 238.608 43.4141 238.891 44.4531 239.456C45.4922 240.021 46.2988 240.805 46.873 241.808C47.4564 242.801 47.8164 243.954 47.9531 245.267H45.3281C45.2005 244.337 44.9635 243.539 44.6172 242.874C44.2708 242.2 43.7786 241.68 43.1406 241.315C42.5026 240.951 41.6686 240.769 40.6387 240.769C39.7546 240.769 38.9753 240.937 38.3008 241.274C37.6354 241.612 37.0749 242.09 36.6191 242.71C36.1725 243.33 35.8353 244.073 35.6074 244.938C35.3796 245.804 35.2656 246.766 35.2656 247.823V249.833C35.2656 250.808 35.3659 251.724 35.5664 252.581C35.776 253.438 36.0905 254.19 36.5098 254.837C36.929 255.484 37.4622 255.994 38.1094 256.368C38.7565 256.733 39.5221 256.915 40.4062 256.915C41.5273 256.915 42.4206 256.737 43.0859 256.382C43.7513 256.026 44.2526 255.516 44.5898 254.851C44.9362 254.185 45.1823 253.388 45.3281 252.458ZM66.875 248.206V249.464C66.875 250.959 66.6882 252.299 66.3145 253.483C65.9408 254.668 65.403 255.675 64.7012 256.505C63.9993 257.334 63.1562 257.968 62.1719 258.405C61.1966 258.843 60.1029 259.062 58.8906 259.062C57.7148 259.062 56.6348 258.843 55.6504 258.405C54.6751 257.968 53.8275 257.334 53.1074 256.505C52.3965 255.675 51.8451 254.668 51.4531 253.483C51.0612 252.299 50.8652 250.959 50.8652 249.464V248.206C50.8652 246.711 51.0566 245.376 51.4395 244.2C51.8314 243.015 52.3828 242.008 53.0938 241.179C53.8047 240.34 54.6478 239.702 55.623 239.265C56.6074 238.827 57.6875 238.608 58.8633 238.608C60.0755 238.608 61.1693 238.827 62.1445 239.265C63.1289 239.702 63.972 240.34 64.6738 241.179C65.3848 242.008 65.9271 243.015 66.3008 244.2C66.6836 245.376 66.875 246.711 66.875 248.206ZM64.2637 249.464V248.179C64.2637 246.994 64.1406 245.946 63.8945 245.034C63.6576 244.123 63.3066 243.357 62.8418 242.737C62.377 242.118 61.8073 241.648 61.1328 241.329C60.4674 241.01 59.7109 240.851 58.8633 240.851C58.043 240.851 57.3001 241.01 56.6348 241.329C55.9785 241.648 55.4134 242.118 54.9395 242.737C54.4746 243.357 54.1146 244.123 53.8594 245.034C53.6042 245.946 53.4766 246.994 53.4766 248.179V249.464C53.4766 250.658 53.6042 251.715 53.8594 252.636C54.1146 253.547 54.4792 254.317 54.9531 254.946C55.4362 255.566 56.0059 256.035 56.6621 256.354C57.3275 256.674 58.0703 256.833 58.8906 256.833C59.7474 256.833 60.5085 256.674 61.1738 256.354C61.8392 256.035 62.3997 255.566 62.8555 254.946C63.3203 254.317 63.6712 253.547 63.9082 252.636C64.1452 251.715 64.2637 250.658 64.2637 249.464ZM76.0625 252.772L80.0137 238.882H81.9277L80.8203 244.282L76.5684 258.788H74.668L76.0625 252.772ZM71.9746 238.882L75.1191 252.499L76.0625 258.788H74.1758L69.3496 238.882H71.9746ZM87.041 252.485L90.1172 238.882H92.7559L87.9434 258.788H86.0566L87.041 252.485ZM82.2148 238.882L86.0566 252.772L87.4512 258.788H85.5508L81.4492 244.282L80.3281 238.882H82.2148ZM114.016 238.882H116.641V252.349C116.641 253.843 116.308 255.088 115.643 256.081C114.977 257.075 114.093 257.822 112.99 258.323C111.896 258.815 110.707 259.062 109.422 259.062C108.073 259.062 106.852 258.815 105.758 258.323C104.673 257.822 103.812 257.075 103.174 256.081C102.545 255.088 102.23 253.843 102.23 252.349V238.882H104.842V252.349C104.842 253.388 105.033 254.244 105.416 254.919C105.799 255.593 106.332 256.095 107.016 256.423C107.708 256.751 108.51 256.915 109.422 256.915C110.342 256.915 111.145 256.751 111.828 256.423C112.521 256.095 113.059 255.593 113.441 254.919C113.824 254.244 114.016 253.388 114.016 252.349V238.882ZM120.783 238.882H127.373C128.868 238.882 130.13 239.11 131.16 239.565C132.199 240.021 132.988 240.696 133.525 241.589C134.072 242.473 134.346 243.562 134.346 244.856C134.346 245.768 134.159 246.602 133.785 247.358C133.421 248.106 132.892 248.744 132.199 249.272C131.516 249.792 130.695 250.179 129.738 250.435L129 250.722H122.807L122.779 248.575H127.455C128.403 248.575 129.191 248.411 129.82 248.083C130.449 247.746 130.923 247.295 131.242 246.729C131.561 246.164 131.721 245.54 131.721 244.856C131.721 244.091 131.57 243.421 131.27 242.847C130.969 242.272 130.495 241.83 129.848 241.521C129.21 241.201 128.385 241.042 127.373 241.042H123.422V258.788H120.783V238.882ZM132.418 258.788L127.578 249.765L130.326 249.751L135.234 258.624V258.788H132.418ZM140.867 238.882V258.788H138.229V238.882H140.867ZM160.979 238.882V258.788H158.326L148.305 243.435V258.788H145.666V238.882H148.305L158.367 254.276V238.882H160.979ZM178.301 256.642V258.788H167.76V256.642H178.301ZM168.293 238.882V258.788H165.654V238.882H168.293ZM176.906 247.44V249.587H167.76V247.44H176.906ZM178.164 238.882V241.042H167.76V238.882H178.164ZM45.3281 307.458H47.9531C47.8164 308.716 47.4564 309.841 46.873 310.835C46.2897 311.828 45.4648 312.617 44.3984 313.2C43.332 313.774 42.0013 314.062 40.4062 314.062C39.2396 314.062 38.1777 313.843 37.2207 313.405C36.2728 312.968 35.457 312.348 34.7734 311.546C34.0898 310.735 33.5612 309.764 33.1875 308.634C32.8229 307.494 32.6406 306.228 32.6406 304.833V302.851C32.6406 301.456 32.8229 300.194 33.1875 299.063C33.5612 297.924 34.0944 296.949 34.7871 296.138C35.4889 295.326 36.332 294.702 37.3164 294.265C38.3008 293.827 39.4082 293.608 40.6387 293.608C42.1426 293.608 43.4141 293.891 44.4531 294.456C45.4922 295.021 46.2988 295.805 46.873 296.808C47.4564 297.801 47.8164 298.954 47.9531 300.267H45.3281C45.2005 299.337 44.9635 298.539 44.6172 297.874C44.2708 297.2 43.7786 296.68 43.1406 296.315C42.5026 295.951 41.6686 295.769 40.6387 295.769C39.7546 295.769 38.9753 295.937 38.3008 296.274C37.6354 296.612 37.0749 297.09 36.6191 297.71C36.1725 298.33 35.8353 299.073 35.6074 299.938C35.3796 300.804 35.2656 301.766 35.2656 302.823V304.833C35.2656 305.808 35.3659 306.724 35.5664 307.581C35.776 308.438 36.0905 309.19 36.5098 309.837C36.929 310.484 37.4622 310.994 38.1094 311.368C38.7565 311.733 39.5221 311.915 40.4062 311.915C41.5273 311.915 42.4206 311.737 43.0859 311.382C43.7513 311.026 44.2526 310.516 44.5898 309.851C44.9362 309.185 45.1823 308.388 45.3281 307.458ZM66.875 303.206V304.464C66.875 305.959 66.6882 307.299 66.3145 308.483C65.9408 309.668 65.403 310.675 64.7012 311.505C63.9993 312.334 63.1562 312.968 62.1719 313.405C61.1966 313.843 60.1029 314.062 58.8906 314.062C57.7148 314.062 56.6348 313.843 55.6504 313.405C54.6751 312.968 53.8275 312.334 53.1074 311.505C52.3965 310.675 51.8451 309.668 51.4531 308.483C51.0612 307.299 50.8652 305.959 50.8652 304.464V303.206C50.8652 301.711 51.0566 300.376 51.4395 299.2C51.8314 298.015 52.3828 297.008 53.0938 296.179C53.8047 295.34 54.6478 294.702 55.623 294.265C56.6074 293.827 57.6875 293.608 58.8633 293.608C60.0755 293.608 61.1693 293.827 62.1445 294.265C63.1289 294.702 63.972 295.34 64.6738 296.179C65.3848 297.008 65.9271 298.015 66.3008 299.2C66.6836 300.376 66.875 301.711 66.875 303.206ZM64.2637 304.464V303.179C64.2637 301.994 64.1406 300.946 63.8945 300.034C63.6576 299.123 63.3066 298.357 62.8418 297.737C62.377 297.118 61.8073 296.648 61.1328 296.329C60.4674 296.01 59.7109 295.851 58.8633 295.851C58.043 295.851 57.3001 296.01 56.6348 296.329C55.9785 296.648 55.4134 297.118 54.9395 297.737C54.4746 298.357 54.1146 299.123 53.8594 300.034C53.6042 300.946 53.4766 301.994 53.4766 303.179V304.464C53.4766 305.658 53.6042 306.715 53.8594 307.636C54.1146 308.547 54.4792 309.317 54.9531 309.946C55.4362 310.566 56.0059 311.035 56.6621 311.354C57.3275 311.674 58.0703 311.833 58.8906 311.833C59.7474 311.833 60.5085 311.674 61.1738 311.354C61.8392 311.035 62.3997 310.566 62.8555 309.946C63.3203 309.317 63.6712 308.547 63.9082 307.636C64.1452 306.715 64.2637 305.658 64.2637 304.464ZM76.0625 307.772L80.0137 293.882H81.9277L80.8203 299.282L76.5684 313.788H74.668L76.0625 307.772ZM71.9746 293.882L75.1191 307.499L76.0625 313.788H74.1758L69.3496 293.882H71.9746ZM87.041 307.485L90.1172 293.882H92.7559L87.9434 313.788H86.0566L87.041 307.485ZM82.2148 293.882L86.0566 307.772L87.4512 313.788H85.5508L81.4492 299.282L80.3281 293.882H82.2148ZM117.338 303.876V311.163C117.092 311.528 116.7 311.938 116.162 312.394C115.624 312.84 114.882 313.232 113.934 313.569C112.995 313.897 111.783 314.062 110.297 314.062C109.085 314.062 107.968 313.852 106.947 313.433C105.936 313.004 105.056 312.384 104.309 311.573C103.57 310.753 102.996 309.759 102.586 308.593C102.185 307.417 101.984 306.086 101.984 304.601V303.056C101.984 301.57 102.158 300.244 102.504 299.077C102.859 297.91 103.379 296.922 104.062 296.11C104.746 295.29 105.585 294.67 106.578 294.251C107.572 293.823 108.711 293.608 109.996 293.608C111.518 293.608 112.79 293.873 113.811 294.401C114.84 294.921 115.643 295.641 116.217 296.562C116.8 297.482 117.174 298.53 117.338 299.706H114.699C114.581 298.986 114.344 298.33 113.988 297.737C113.642 297.145 113.145 296.671 112.498 296.315C111.851 295.951 111.017 295.769 109.996 295.769C109.076 295.769 108.278 295.937 107.604 296.274C106.929 296.612 106.373 297.095 105.936 297.724C105.498 298.353 105.17 299.114 104.951 300.007C104.742 300.9 104.637 301.907 104.637 303.028V304.601C104.637 305.749 104.769 306.774 105.033 307.677C105.307 308.579 105.694 309.349 106.195 309.987C106.697 310.616 107.294 311.095 107.986 311.423C108.688 311.751 109.463 311.915 110.311 311.915C111.249 311.915 112.01 311.838 112.594 311.683C113.177 311.519 113.633 311.327 113.961 311.108C114.289 310.881 114.54 310.666 114.713 310.466V306.009H110.105V303.876H117.338ZM134.715 302.44V304.587H123.941V302.44H134.715ZM124.352 293.882V313.788H121.713V293.882H124.352ZM137.012 293.882V313.788H134.387V293.882H137.012ZM154.348 311.642V313.788H143.807V311.642H154.348ZM144.34 293.882V313.788H141.701V293.882H144.34ZM152.953 302.44V304.587H143.807V302.44H152.953ZM154.211 293.882V296.042H143.807V293.882H154.211ZM170.262 311.642V313.788H159.721V311.642H170.262ZM160.254 293.882V313.788H157.615V293.882H160.254ZM168.867 302.44V304.587H159.721V302.44H168.867ZM170.125 293.882V296.042H159.721V293.882H170.125ZM46.3125 357.44V359.587H35.5391V357.44H46.3125ZM35.9492 348.882V368.788H33.3105V348.882H35.9492ZM48.6094 348.882V368.788H45.9844V348.882H48.6094ZM60.9141 350.646L54.3242 368.788H51.6309L59.2188 348.882H60.9551L60.9141 350.646ZM66.4375 368.788L59.834 350.646L59.793 348.882H61.5293L69.1445 368.788H66.4375ZM66.0957 361.419V363.579H54.9121V361.419H66.0957ZM77.0332 365.767L82.8984 348.882H85.7559L78.3867 368.788H76.3496L77.0332 365.767ZM71.5508 348.882L77.3613 365.767L78.0859 368.788H76.0488L68.6934 348.882H71.5508ZM94.7656 350.646L88.1758 368.788H85.4824L93.0703 348.882H94.8066L94.7656 350.646ZM100.289 368.788L93.6855 350.646L93.6445 348.882H95.3809L102.996 368.788H100.289ZM99.9473 361.419V363.579H88.7637V361.419H99.9473ZM120.975 348.882V368.788H118.322L108.301 353.435V368.788H105.662V348.882H108.301L118.363 364.276V348.882H120.975ZM143.205 363.757C143.205 363.292 143.132 362.882 142.986 362.526C142.85 362.162 142.604 361.834 142.248 361.542C141.902 361.25 141.419 360.972 140.799 360.708C140.188 360.444 139.413 360.175 138.475 359.901C137.49 359.61 136.602 359.286 135.809 358.931C135.016 358.566 134.337 358.151 133.771 357.687C133.206 357.222 132.773 356.688 132.473 356.087C132.172 355.485 132.021 354.797 132.021 354.022C132.021 353.248 132.181 352.532 132.5 351.876C132.819 351.22 133.275 350.65 133.867 350.167C134.469 349.675 135.184 349.292 136.014 349.019C136.843 348.745 137.768 348.608 138.789 348.608C140.284 348.608 141.551 348.896 142.59 349.47C143.638 350.035 144.436 350.778 144.982 351.698C145.529 352.61 145.803 353.585 145.803 354.624H143.178C143.178 353.877 143.018 353.216 142.699 352.642C142.38 352.058 141.897 351.603 141.25 351.274C140.603 350.937 139.783 350.769 138.789 350.769C137.85 350.769 137.076 350.91 136.465 351.192C135.854 351.475 135.398 351.858 135.098 352.341C134.806 352.824 134.66 353.375 134.66 353.995C134.66 354.414 134.747 354.797 134.92 355.144C135.102 355.481 135.38 355.795 135.754 356.087C136.137 356.379 136.62 356.647 137.203 356.894C137.796 357.14 138.502 357.377 139.322 357.604C140.452 357.924 141.428 358.279 142.248 358.671C143.068 359.063 143.743 359.505 144.271 359.997C144.809 360.48 145.206 361.032 145.461 361.651C145.725 362.262 145.857 362.955 145.857 363.729C145.857 364.541 145.693 365.274 145.365 365.931C145.037 366.587 144.568 367.147 143.957 367.612C143.346 368.077 142.613 368.437 141.756 368.692C140.908 368.938 139.96 369.062 138.912 369.062C137.992 369.062 137.085 368.934 136.191 368.679C135.307 368.424 134.501 368.041 133.771 367.53C133.051 367.02 132.473 366.391 132.035 365.644C131.607 364.887 131.393 364.012 131.393 363.019H134.018C134.018 363.702 134.15 364.29 134.414 364.782C134.678 365.265 135.038 365.666 135.494 365.985C135.959 366.304 136.483 366.541 137.066 366.696C137.659 366.842 138.274 366.915 138.912 366.915C139.833 366.915 140.612 366.787 141.25 366.532C141.888 366.277 142.371 365.912 142.699 365.438C143.036 364.965 143.205 364.404 143.205 363.757ZM156.59 350.646L150 368.788H147.307L154.895 348.882H156.631L156.59 350.646ZM162.113 368.788L155.51 350.646L155.469 348.882H157.205L164.82 368.788H162.113ZM161.771 361.419V363.579H150.588V361.419H161.771ZM168.32 348.882H170.877L177.398 365.11L183.906 348.882H186.477L178.383 368.788H176.387L168.32 348.882ZM167.486 348.882H169.742L170.111 361.022V368.788H167.486V348.882ZM185.041 348.882H187.297V368.788H184.672V361.022L185.041 348.882ZM199.547 350.646L192.957 368.788H190.264L197.852 348.882H199.588L199.547 350.646ZM205.07 368.788L198.467 350.646L198.426 348.882H200.162L207.777 368.788H205.07ZM204.729 361.419V363.579H193.545V361.419H204.729ZM224.99 358.876V366.163C224.744 366.528 224.352 366.938 223.814 367.394C223.277 367.84 222.534 368.232 221.586 368.569C220.647 368.897 219.435 369.062 217.949 369.062C216.737 369.062 215.62 368.852 214.6 368.433C213.588 368.004 212.708 367.384 211.961 366.573C211.223 365.753 210.648 364.759 210.238 363.593C209.837 362.417 209.637 361.086 209.637 359.601V358.056C209.637 356.57 209.81 355.244 210.156 354.077C210.512 352.91 211.031 351.922 211.715 351.11C212.398 350.29 213.237 349.67 214.23 349.251C215.224 348.823 216.363 348.608 217.648 348.608C219.171 348.608 220.442 348.873 221.463 349.401C222.493 349.921 223.295 350.641 223.869 351.562C224.452 352.482 224.826 353.53 224.99 354.706H222.352C222.233 353.986 221.996 353.33 221.641 352.737C221.294 352.145 220.798 351.671 220.15 351.315C219.503 350.951 218.669 350.769 217.648 350.769C216.728 350.769 215.93 350.937 215.256 351.274C214.581 351.612 214.025 352.095 213.588 352.724C213.15 353.353 212.822 354.114 212.604 355.007C212.394 355.9 212.289 356.907 212.289 358.028V359.601C212.289 360.749 212.421 361.774 212.686 362.677C212.959 363.579 213.346 364.349 213.848 364.987C214.349 365.616 214.946 366.095 215.639 366.423C216.34 366.751 217.115 366.915 217.963 366.915C218.902 366.915 219.663 366.838 220.246 366.683C220.829 366.519 221.285 366.327 221.613 366.108C221.941 365.881 222.192 365.666 222.365 365.466V361.009H217.758V358.876H224.99ZM229.365 348.882H235.955C237.45 348.882 238.712 349.11 239.742 349.565C240.781 350.021 241.57 350.696 242.107 351.589C242.654 352.473 242.928 353.562 242.928 354.856C242.928 355.768 242.741 356.602 242.367 357.358C242.003 358.106 241.474 358.744 240.781 359.272C240.098 359.792 239.277 360.179 238.32 360.435L237.582 360.722H231.389L231.361 358.575H236.037C236.985 358.575 237.773 358.411 238.402 358.083C239.031 357.746 239.505 357.295 239.824 356.729C240.143 356.164 240.303 355.54 240.303 354.856C240.303 354.091 240.152 353.421 239.852 352.847C239.551 352.272 239.077 351.83 238.43 351.521C237.792 351.201 236.967 351.042 235.955 351.042H232.004V368.788H229.365V348.882ZM241 368.788L236.16 359.765L238.908 359.751L243.816 368.624V368.788H241ZM249.449 348.882V368.788H246.811V348.882H249.449ZM43.9199 418.757C43.9199 418.292 43.847 417.882 43.7012 417.526C43.5645 417.162 43.3184 416.834 42.9629 416.542C42.6165 416.25 42.1335 415.972 41.5137 415.708C40.903 415.444 40.1283 415.175 39.1895 414.901C38.2051 414.61 37.3164 414.286 36.5234 413.931C35.7305 413.566 35.0514 413.151 34.4863 412.687C33.9212 412.222 33.4883 411.688 33.1875 411.087C32.8867 410.485 32.7363 409.797 32.7363 409.022C32.7363 408.248 32.8958 407.532 33.2148 406.876C33.5339 406.22 33.9896 405.65 34.582 405.167C35.1836 404.675 35.8991 404.292 36.7285 404.019C37.5579 403.745 38.4831 403.608 39.5039 403.608C40.9987 403.608 42.2656 403.896 43.3047 404.47C44.3529 405.035 45.1504 405.778 45.6973 406.698C46.2441 407.61 46.5176 408.585 46.5176 409.624H43.8926C43.8926 408.877 43.7331 408.216 43.4141 407.642C43.0951 407.058 42.612 406.603 41.9648 406.274C41.3177 405.937 40.4974 405.769 39.5039 405.769C38.5651 405.769 37.7904 405.91 37.1797 406.192C36.569 406.475 36.1133 406.858 35.8125 407.341C35.5208 407.824 35.375 408.375 35.375 408.995C35.375 409.414 35.4616 409.797 35.6348 410.144C35.8171 410.481 36.0951 410.795 36.4688 411.087C36.8516 411.379 37.3346 411.647 37.918 411.894C38.5104 412.14 39.2168 412.377 40.0371 412.604C41.1673 412.924 42.1426 413.279 42.9629 413.671C43.7832 414.063 44.4577 414.505 44.9863 414.997C45.5241 415.48 45.9206 416.032 46.1758 416.651C46.4401 417.262 46.5723 417.955 46.5723 418.729C46.5723 419.541 46.4082 420.274 46.0801 420.931C45.752 421.587 45.2826 422.147 44.6719 422.612C44.0612 423.077 43.3275 423.437 42.4707 423.692C41.623 423.938 40.6751 424.062 39.627 424.062C38.7064 424.062 37.7995 423.934 36.9062 423.679C36.0221 423.424 35.2155 423.041 34.4863 422.53C33.7663 422.02 33.1875 421.391 32.75 420.644C32.3216 419.887 32.1074 419.012 32.1074 418.019H34.7324C34.7324 418.702 34.8646 419.29 35.1289 419.782C35.3932 420.265 35.7533 420.666 36.209 420.985C36.6738 421.304 37.1979 421.541 37.7812 421.696C38.3737 421.842 38.9889 421.915 39.627 421.915C40.5475 421.915 41.3268 421.787 41.9648 421.532C42.6029 421.277 43.0859 420.912 43.4141 420.438C43.7513 419.965 43.9199 419.404 43.9199 418.757ZM57.3047 405.646L50.7148 423.788H48.0215L55.6094 403.882H57.3457L57.3047 405.646ZM62.8281 423.788L56.2246 405.646L56.1836 403.882H57.9199L65.5352 423.788H62.8281ZM62.4863 416.419V418.579H51.3027V416.419H62.4863ZM72.4805 417.772L76.4316 403.882H78.3457L77.2383 409.282L72.9863 423.788H71.0859L72.4805 417.772ZM68.3926 403.882L71.5371 417.499L72.4805 423.788H70.5938L65.7676 403.882H68.3926ZM83.459 417.485L86.5352 403.882H89.1738L84.3613 423.788H82.4746L83.459 417.485ZM78.6328 403.882L82.4746 417.772L83.8691 423.788H81.9688L77.8672 409.282L76.7461 403.882H78.6328ZM104.432 423.788H100.275L100.303 421.642H104.432C105.854 421.642 107.038 421.345 107.986 420.753C108.934 420.151 109.645 419.313 110.119 418.237C110.602 417.153 110.844 415.886 110.844 414.437V413.22C110.844 412.08 110.707 411.069 110.434 410.185C110.16 409.291 109.759 408.539 109.23 407.929C108.702 407.309 108.055 406.84 107.289 406.521C106.533 406.201 105.662 406.042 104.678 406.042H100.193V403.882H104.678C105.981 403.882 107.171 404.101 108.246 404.538C109.322 404.966 110.247 405.591 111.021 406.411C111.805 407.222 112.407 408.207 112.826 409.364C113.245 410.513 113.455 411.807 113.455 413.247V414.437C113.455 415.877 113.245 417.175 112.826 418.333C112.407 419.481 111.801 420.461 111.008 421.272C110.224 422.084 109.276 422.708 108.164 423.146C107.061 423.574 105.817 423.788 104.432 423.788ZM101.684 403.882V423.788H99.0449V403.882H101.684ZM128.809 403.882H131.434V417.349C131.434 418.843 131.101 420.088 130.436 421.081C129.77 422.075 128.886 422.822 127.783 423.323C126.689 423.815 125.5 424.062 124.215 424.062C122.866 424.062 121.645 423.815 120.551 423.323C119.466 422.822 118.605 422.075 117.967 421.081C117.338 420.088 117.023 418.843 117.023 417.349V403.882H119.635V417.349C119.635 418.388 119.826 419.244 120.209 419.919C120.592 420.593 121.125 421.095 121.809 421.423C122.501 421.751 123.303 421.915 124.215 421.915C125.135 421.915 125.938 421.751 126.621 421.423C127.314 421.095 127.852 420.593 128.234 419.919C128.617 419.244 128.809 418.388 128.809 417.349V403.882ZM146.186 418.757C146.186 418.292 146.113 417.882 145.967 417.526C145.83 417.162 145.584 416.834 145.229 416.542C144.882 416.25 144.399 415.972 143.779 415.708C143.169 415.444 142.394 415.175 141.455 414.901C140.471 414.61 139.582 414.286 138.789 413.931C137.996 413.566 137.317 413.151 136.752 412.687C136.187 412.222 135.754 411.688 135.453 411.087C135.152 410.485 135.002 409.797 135.002 409.022C135.002 408.248 135.161 407.532 135.48 406.876C135.799 406.22 136.255 405.65 136.848 405.167C137.449 404.675 138.165 404.292 138.994 404.019C139.824 403.745 140.749 403.608 141.77 403.608C143.264 403.608 144.531 403.896 145.57 404.47C146.618 405.035 147.416 405.778 147.963 406.698C148.51 407.61 148.783 408.585 148.783 409.624H146.158C146.158 408.877 145.999 408.216 145.68 407.642C145.361 407.058 144.878 406.603 144.23 406.274C143.583 405.937 142.763 405.769 141.77 405.769C140.831 405.769 140.056 405.91 139.445 406.192C138.835 406.475 138.379 406.858 138.078 407.341C137.786 407.824 137.641 408.375 137.641 408.995C137.641 409.414 137.727 409.797 137.9 410.144C138.083 410.481 138.361 410.795 138.734 411.087C139.117 411.379 139.6 411.647 140.184 411.894C140.776 412.14 141.482 412.377 142.303 412.604C143.433 412.924 144.408 413.279 145.229 413.671C146.049 414.063 146.723 414.505 147.252 414.997C147.79 415.48 148.186 416.032 148.441 416.651C148.706 417.262 148.838 417.955 148.838 418.729C148.838 419.541 148.674 420.274 148.346 420.931C148.018 421.587 147.548 422.147 146.938 422.612C146.327 423.077 145.593 423.437 144.736 423.692C143.889 423.938 142.941 424.062 141.893 424.062C140.972 424.062 140.065 423.934 139.172 423.679C138.288 423.424 137.481 423.041 136.752 422.53C136.032 422.02 135.453 421.391 135.016 420.644C134.587 419.887 134.373 419.012 134.373 418.019H136.998C136.998 418.702 137.13 419.29 137.395 419.782C137.659 420.265 138.019 420.666 138.475 420.985C138.939 421.304 139.464 421.541 140.047 421.696C140.639 421.842 141.255 421.915 141.893 421.915C142.813 421.915 143.592 421.787 144.23 421.532C144.868 421.277 145.352 420.912 145.68 420.438C146.017 419.965 146.186 419.404 146.186 418.757ZM159.557 403.882V423.788H156.959V403.882H159.557ZM165.955 403.882V406.042H150.574V403.882H165.955Z" fill="#8D2C30"/>
<path d="M442.529 107.068H437.457V103.869H442.529C443.313 103.869 443.951 103.741 444.443 103.486C444.936 103.222 445.296 102.857 445.523 102.392C445.751 101.927 445.865 101.403 445.865 100.82C445.865 100.228 445.751 99.6762 445.523 99.1658C445.296 98.6554 444.936 98.2452 444.443 97.9353C443.951 97.6254 443.313 97.4705 442.529 97.4705H438.879V114.164H434.777V94.2576H442.529C444.088 94.2576 445.423 94.5401 446.535 95.1052C447.656 95.6612 448.513 96.4314 449.105 97.4158C449.698 98.4001 449.994 99.5258 449.994 100.793C449.994 102.078 449.698 103.19 449.105 104.129C448.513 105.067 447.656 105.792 446.535 106.302C445.423 106.813 444.088 107.068 442.529 107.068ZM466.182 110.965V114.164H455.586V110.965H466.182ZM456.926 94.2576V114.164H452.824V94.2576H456.926ZM464.801 102.365V105.482H455.586V102.365H464.801ZM466.168 94.2576V97.4705H455.586V94.2576H466.168ZM468.574 94.2576H475.998C477.52 94.2576 478.828 94.4854 479.922 94.9412C481.025 95.3969 481.872 96.0714 482.465 96.9646C483.057 97.8578 483.354 98.9561 483.354 100.26C483.354 101.326 483.171 102.242 482.807 103.008C482.451 103.764 481.945 104.398 481.289 104.908C480.642 105.409 479.881 105.81 479.006 106.111L477.707 106.795H471.254L471.227 103.595H476.025C476.745 103.595 477.342 103.468 477.816 103.213C478.29 102.957 478.646 102.602 478.883 102.146C479.129 101.691 479.252 101.162 479.252 100.56C479.252 99.9223 479.133 99.3708 478.896 98.906C478.66 98.4412 478.299 98.0857 477.816 97.8396C477.333 97.5935 476.727 97.4705 475.998 97.4705H472.676V114.164H468.574V94.2576ZM479.703 114.164L475.164 105.291L479.498 105.263L484.092 113.972V114.164H479.703ZM498.051 107.56H502.139C502.057 108.9 501.688 110.09 501.031 111.129C500.384 112.168 499.477 112.979 498.311 113.562C497.153 114.146 495.758 114.437 494.127 114.437C492.851 114.437 491.707 114.219 490.695 113.781C489.684 113.334 488.818 112.696 488.098 111.867C487.387 111.038 486.844 110.035 486.471 108.859C486.097 107.683 485.91 106.366 485.91 104.908V103.527C485.91 102.069 486.102 100.752 486.484 99.5759C486.876 98.391 487.432 97.3839 488.152 96.5544C488.882 95.725 489.752 95.087 490.764 94.6404C491.775 94.1938 492.906 93.9705 494.154 93.9705C495.813 93.9705 497.212 94.2712 498.352 94.8728C499.5 95.4744 500.389 96.3038 501.018 97.3611C501.656 98.4184 502.038 99.6215 502.166 100.97H498.064C498.019 100.168 497.859 99.4893 497.586 98.9333C497.312 98.3682 496.898 97.9444 496.342 97.6619C495.795 97.3702 495.066 97.2244 494.154 97.2244C493.471 97.2244 492.874 97.352 492.363 97.6072C491.853 97.8624 491.424 98.2498 491.078 98.7693C490.732 99.2888 490.472 99.9451 490.299 100.738C490.135 101.522 490.053 102.442 490.053 103.5V104.908C490.053 105.938 490.13 106.845 490.285 107.629C490.44 108.403 490.677 109.06 490.996 109.597C491.324 110.126 491.743 110.527 492.254 110.801C492.773 111.065 493.398 111.197 494.127 111.197C494.984 111.197 495.69 111.06 496.246 110.787C496.802 110.513 497.226 110.108 497.518 109.57C497.818 109.032 497.996 108.362 498.051 107.56ZM518.189 110.965V114.164H507.594V110.965H518.189ZM508.934 94.2576V114.164H504.832V94.2576H508.934ZM516.809 102.365V105.482H507.594V102.365H516.809ZM518.176 94.2576V97.4705H507.594V94.2576H518.176ZM536.783 94.2576V114.164H532.682L524.684 100.82V114.164H520.582V94.2576H524.684L532.695 107.615V94.2576H536.783ZM548.842 94.2576V114.164H544.754V94.2576H548.842ZM554.967 94.2576V97.4705H538.725V94.2576H554.967ZM563.922 97.6619L558.508 114.164H554.146L561.543 94.2576H564.318L563.922 97.6619ZM568.42 114.164L562.992 97.6619L562.555 94.2576H565.357L572.795 114.164H568.42ZM568.174 106.754V109.967H557.66V106.754H568.174ZM590.172 103.76V111.648C589.862 112.022 589.383 112.427 588.736 112.865C588.089 113.293 587.255 113.663 586.234 113.972C585.214 114.282 583.979 114.437 582.529 114.437C581.244 114.437 580.073 114.228 579.016 113.808C577.958 113.38 577.047 112.756 576.281 111.935C575.525 111.115 574.941 110.112 574.531 108.927C574.121 107.733 573.916 106.371 573.916 104.84V103.595C573.916 102.064 574.112 100.702 574.504 99.5076C574.905 98.3136 575.475 97.3064 576.213 96.4861C576.951 95.6658 577.831 95.0414 578.852 94.613C579.872 94.1847 581.007 93.9705 582.256 93.9705C583.988 93.9705 585.41 94.253 586.521 94.8181C587.633 95.3741 588.481 96.1488 589.064 97.1423C589.657 98.1267 590.021 99.2569 590.158 100.533H586.18C586.079 99.8585 585.888 99.2706 585.605 98.7693C585.323 98.268 584.917 97.8761 584.389 97.5935C583.869 97.311 583.195 97.1697 582.365 97.1697C581.682 97.1697 581.071 97.311 580.533 97.5935C580.005 97.8669 579.558 98.2725 579.193 98.8103C578.829 99.3481 578.551 100.013 578.359 100.806C578.168 101.599 578.072 102.52 578.072 103.568V104.84C578.072 105.879 578.173 106.799 578.373 107.601C578.574 108.394 578.87 109.064 579.262 109.611C579.663 110.149 580.155 110.554 580.738 110.828C581.322 111.101 582.001 111.238 582.775 111.238C583.423 111.238 583.96 111.183 584.389 111.074C584.826 110.965 585.177 110.832 585.441 110.677C585.715 110.513 585.924 110.358 586.07 110.213V106.685H582.324V103.76H590.172ZM606.838 110.965V114.164H596.242V110.965H606.838ZM597.582 94.2576V114.164H593.48V94.2576H597.582ZM605.457 102.365V105.482H596.242V102.365H605.457ZM606.824 94.2576V97.4705H596.242V94.2576H606.824Z" fill="#8D2C30"/>
<path d="M515.52 184.884V186.305L507.275 204.79H504.609L512.84 186.962H502.066V184.884H515.52ZM530.9 193.251V196.286C530.9 197.917 530.755 199.294 530.463 200.415C530.171 201.536 529.752 202.438 529.205 203.122C528.658 203.805 527.997 204.302 527.223 204.612C526.457 204.913 525.591 205.063 524.625 205.063C523.859 205.063 523.153 204.968 522.506 204.776C521.859 204.585 521.275 204.279 520.756 203.86C520.245 203.432 519.808 202.876 519.443 202.192C519.079 201.509 518.801 200.679 518.609 199.704C518.418 198.729 518.322 197.589 518.322 196.286V193.251C518.322 191.619 518.468 190.252 518.76 189.149C519.061 188.046 519.484 187.162 520.031 186.497C520.578 185.822 521.234 185.339 522 185.048C522.775 184.756 523.641 184.61 524.598 184.61C525.372 184.61 526.083 184.706 526.73 184.897C527.387 185.08 527.97 185.376 528.48 185.786C528.991 186.187 529.424 186.725 529.779 187.399C530.144 188.065 530.422 188.88 530.613 189.846C530.805 190.813 530.9 191.947 530.9 193.251ZM528.357 196.696V192.827C528.357 191.934 528.303 191.15 528.193 190.475C528.093 189.792 527.943 189.208 527.742 188.725C527.542 188.242 527.286 187.85 526.977 187.55C526.676 187.249 526.325 187.03 525.924 186.893C525.532 186.747 525.09 186.675 524.598 186.675C523.996 186.675 523.463 186.788 522.998 187.016C522.533 187.235 522.141 187.586 521.822 188.069C521.512 188.552 521.275 189.186 521.111 189.969C520.947 190.753 520.865 191.706 520.865 192.827V196.696C520.865 197.589 520.915 198.378 521.016 199.061C521.125 199.745 521.285 200.337 521.494 200.839C521.704 201.331 521.959 201.736 522.26 202.055C522.561 202.374 522.907 202.611 523.299 202.766C523.7 202.912 524.142 202.985 524.625 202.985C525.245 202.985 525.787 202.867 526.252 202.63C526.717 202.393 527.104 202.024 527.414 201.522C527.733 201.012 527.97 200.36 528.125 199.567C528.28 198.765 528.357 197.808 528.357 196.696Z" fill="#8D2C30"/>
<path d="M510.967 241.858V261.873H508.438V245.016L503.338 246.875V244.592L510.57 241.858H510.967ZM521.604 252.399L519.58 251.879L520.578 241.967H530.791V244.305H522.725L522.123 249.719C522.488 249.509 522.948 249.313 523.504 249.131C524.069 248.949 524.716 248.858 525.445 248.858C526.366 248.858 527.191 249.017 527.92 249.336C528.649 249.646 529.269 250.093 529.779 250.676C530.299 251.259 530.695 251.961 530.969 252.781C531.242 253.602 531.379 254.518 531.379 255.53C531.379 256.487 531.247 257.366 530.982 258.168C530.727 258.97 530.34 259.672 529.82 260.274C529.301 260.866 528.645 261.326 527.852 261.655C527.068 261.983 526.143 262.147 525.076 262.147C524.274 262.147 523.513 262.037 522.793 261.819C522.082 261.591 521.444 261.249 520.879 260.793C520.323 260.328 519.867 259.754 519.512 259.071C519.165 258.378 518.947 257.567 518.855 256.637H521.262C521.371 257.384 521.59 258.013 521.918 258.524C522.246 259.034 522.674 259.421 523.203 259.686C523.741 259.941 524.365 260.069 525.076 260.069C525.678 260.069 526.211 259.964 526.676 259.754C527.141 259.545 527.533 259.244 527.852 258.852C528.171 258.46 528.412 257.986 528.576 257.43C528.749 256.874 528.836 256.25 528.836 255.557C528.836 254.928 528.749 254.345 528.576 253.807C528.403 253.269 528.143 252.8 527.797 252.399C527.46 251.998 527.045 251.688 526.553 251.469C526.061 251.241 525.495 251.127 524.857 251.127C524.01 251.127 523.367 251.241 522.93 251.469C522.501 251.697 522.059 252.007 521.604 252.399Z" fill="#8D2C30"/>
<path d="M516.15 307.417V310.453C516.15 312.084 516.005 313.46 515.713 314.582C515.421 315.703 515.002 316.605 514.455 317.289C513.908 317.972 513.247 318.469 512.473 318.779C511.707 319.08 510.841 319.23 509.875 319.23C509.109 319.23 508.403 319.134 507.756 318.943C507.109 318.751 506.525 318.446 506.006 318.027C505.495 317.598 505.058 317.042 504.693 316.359C504.329 315.675 504.051 314.846 503.859 313.871C503.668 312.895 503.572 311.756 503.572 310.453V307.417C503.572 305.786 503.718 304.419 504.01 303.316C504.311 302.213 504.734 301.329 505.281 300.664C505.828 299.989 506.484 299.506 507.25 299.214C508.025 298.923 508.891 298.777 509.848 298.777C510.622 298.777 511.333 298.873 511.98 299.064C512.637 299.246 513.22 299.542 513.73 299.953C514.241 300.354 514.674 300.891 515.029 301.566C515.394 302.231 515.672 303.047 515.863 304.013C516.055 304.979 516.15 306.114 516.15 307.417ZM513.607 310.863V306.994C513.607 306.1 513.553 305.317 513.443 304.642C513.343 303.958 513.193 303.375 512.992 302.892C512.792 302.409 512.536 302.017 512.227 301.716C511.926 301.416 511.575 301.197 511.174 301.06C510.782 300.914 510.34 300.841 509.848 300.841C509.246 300.841 508.713 300.955 508.248 301.183C507.783 301.402 507.391 301.753 507.072 302.236C506.762 302.719 506.525 303.352 506.361 304.136C506.197 304.92 506.115 305.873 506.115 306.994V310.863C506.115 311.756 506.165 312.544 506.266 313.228C506.375 313.912 506.535 314.504 506.744 315.005C506.954 315.498 507.209 315.903 507.51 316.222C507.811 316.541 508.157 316.778 508.549 316.933C508.95 317.079 509.392 317.152 509.875 317.152C510.495 317.152 511.037 317.033 511.502 316.796C511.967 316.559 512.354 316.19 512.664 315.689C512.983 315.179 513.22 314.527 513.375 313.734C513.53 312.932 513.607 311.975 513.607 310.863ZM522.604 309.482L520.58 308.962L521.578 299.05H531.791V301.388H523.725L523.123 306.802C523.488 306.593 523.948 306.397 524.504 306.214C525.069 306.032 525.716 305.941 526.445 305.941C527.366 305.941 528.191 306.1 528.92 306.419C529.649 306.729 530.269 307.176 530.779 307.759C531.299 308.343 531.695 309.044 531.969 309.865C532.242 310.685 532.379 311.601 532.379 312.613C532.379 313.57 532.247 314.449 531.982 315.251C531.727 316.054 531.34 316.755 530.82 317.357C530.301 317.949 529.645 318.41 528.852 318.738C528.068 319.066 527.143 319.23 526.076 319.23C525.274 319.23 524.513 319.121 523.793 318.902C523.082 318.674 522.444 318.332 521.879 317.876C521.323 317.412 520.867 316.837 520.512 316.154C520.165 315.461 519.947 314.65 519.855 313.72H522.262C522.371 314.468 522.59 315.097 522.918 315.607C523.246 316.117 523.674 316.505 524.203 316.769C524.741 317.024 525.365 317.152 526.076 317.152C526.678 317.152 527.211 317.047 527.676 316.837C528.141 316.628 528.533 316.327 528.852 315.935C529.171 315.543 529.412 315.069 529.576 314.513C529.749 313.957 529.836 313.333 529.836 312.64C529.836 312.011 529.749 311.428 529.576 310.89C529.403 310.352 529.143 309.883 528.797 309.482C528.46 309.081 528.045 308.771 527.553 308.552C527.061 308.324 526.495 308.21 525.857 308.21C525.01 308.21 524.367 308.324 523.93 308.552C523.501 308.78 523.059 309.09 522.604 309.482Z" fill="#8D2C30"/>
<path d="M517.15 364.501V367.536C517.15 369.168 517.005 370.544 516.713 371.665C516.421 372.786 516.002 373.688 515.455 374.372C514.908 375.056 514.247 375.552 513.473 375.862C512.707 376.163 511.841 376.313 510.875 376.313C510.109 376.313 509.403 376.218 508.756 376.026C508.109 375.835 507.525 375.53 507.006 375.11C506.495 374.682 506.058 374.126 505.693 373.442C505.329 372.759 505.051 371.929 504.859 370.954C504.668 369.979 504.572 368.84 504.572 367.536V364.501C504.572 362.869 504.718 361.502 505.01 360.399C505.311 359.297 505.734 358.412 506.281 357.747C506.828 357.073 507.484 356.59 508.25 356.298C509.025 356.006 509.891 355.86 510.848 355.86C511.622 355.86 512.333 355.956 512.98 356.147C513.637 356.33 514.22 356.626 514.73 357.036C515.241 357.437 515.674 357.975 516.029 358.649C516.394 359.315 516.672 360.131 516.863 361.097C517.055 362.063 517.15 363.198 517.15 364.501ZM514.607 367.946V364.077C514.607 363.184 514.553 362.4 514.443 361.726C514.343 361.042 514.193 360.459 513.992 359.976C513.792 359.493 513.536 359.101 513.227 358.8C512.926 358.499 512.575 358.28 512.174 358.144C511.782 357.998 511.34 357.925 510.848 357.925C510.246 357.925 509.713 358.039 509.248 358.267C508.783 358.485 508.391 358.836 508.072 359.319C507.762 359.802 507.525 360.436 507.361 361.22C507.197 362.004 507.115 362.956 507.115 364.077V367.946C507.115 368.84 507.165 369.628 507.266 370.312C507.375 370.995 507.535 371.588 507.744 372.089C507.954 372.581 508.209 372.987 508.51 373.306C508.811 373.625 509.157 373.862 509.549 374.017C509.95 374.162 510.392 374.235 510.875 374.235C511.495 374.235 512.037 374.117 512.502 373.88C512.967 373.643 513.354 373.274 513.664 372.772C513.983 372.262 514.22 371.61 514.375 370.817C514.53 370.015 514.607 369.058 514.607 367.946ZM523.604 366.565L521.58 366.046L522.578 356.134H532.791V358.472H524.725L524.123 363.886C524.488 363.676 524.948 363.48 525.504 363.298C526.069 363.116 526.716 363.024 527.445 363.024C528.366 363.024 529.191 363.184 529.92 363.503C530.649 363.813 531.269 364.259 531.779 364.843C532.299 365.426 532.695 366.128 532.969 366.948C533.242 367.769 533.379 368.685 533.379 369.696C533.379 370.653 533.247 371.533 532.982 372.335C532.727 373.137 532.34 373.839 531.82 374.44C531.301 375.033 530.645 375.493 529.852 375.821C529.068 376.149 528.143 376.313 527.076 376.313C526.274 376.313 525.513 376.204 524.793 375.985C524.082 375.757 523.444 375.416 522.879 374.96C522.323 374.495 521.867 373.921 521.512 373.237C521.165 372.545 520.947 371.733 520.855 370.804H523.262C523.371 371.551 523.59 372.18 523.918 372.69C524.246 373.201 524.674 373.588 525.203 373.853C525.741 374.108 526.365 374.235 527.076 374.235C527.678 374.235 528.211 374.131 528.676 373.921C529.141 373.711 529.533 373.41 529.852 373.019C530.171 372.627 530.412 372.153 530.576 371.597C530.749 371.041 530.836 370.416 530.836 369.724C530.836 369.095 530.749 368.511 530.576 367.974C530.403 367.436 530.143 366.966 529.797 366.565C529.46 366.164 529.045 365.854 528.553 365.636C528.061 365.408 527.495 365.294 526.857 365.294C526.01 365.294 525.367 365.408 524.93 365.636C524.501 365.864 524.059 366.174 523.604 366.565Z" fill="#8D2C30"/>
<path d="M516.15 425.893V428.928C516.15 430.559 516.005 431.936 515.713 433.057C515.421 434.178 515.002 435.08 514.455 435.764C513.908 436.448 513.247 436.944 512.473 437.254C511.707 437.555 510.841 437.705 509.875 437.705C509.109 437.705 508.403 437.61 507.756 437.418C507.109 437.227 506.525 436.921 506.006 436.502C505.495 436.074 505.058 435.518 504.693 434.834C504.329 434.151 504.051 433.321 503.859 432.346C503.668 431.371 503.572 430.231 503.572 428.928V425.893C503.572 424.261 503.718 422.894 504.01 421.791C504.311 420.688 504.734 419.804 505.281 419.139C505.828 418.464 506.484 417.981 507.25 417.69C508.025 417.398 508.891 417.252 509.848 417.252C510.622 417.252 511.333 417.348 511.98 417.539C512.637 417.722 513.22 418.018 513.73 418.428C514.241 418.829 514.674 419.367 515.029 420.041C515.394 420.707 515.672 421.522 515.863 422.489C516.055 423.455 516.15 424.589 516.15 425.893ZM513.607 429.338V425.469C513.607 424.576 513.553 423.792 513.443 423.117C513.343 422.434 513.193 421.851 512.992 421.367C512.792 420.884 512.536 420.492 512.227 420.192C511.926 419.891 511.575 419.672 511.174 419.535C510.782 419.39 510.34 419.317 509.848 419.317C509.246 419.317 508.713 419.431 508.248 419.658C507.783 419.877 507.391 420.228 507.072 420.711C506.762 421.194 506.525 421.828 506.361 422.612C506.197 423.395 506.115 424.348 506.115 425.469V429.338C506.115 430.231 506.165 431.02 506.266 431.703C506.375 432.387 506.535 432.979 506.744 433.481C506.954 433.973 507.209 434.378 507.51 434.698C507.811 435.017 508.157 435.253 508.549 435.408C508.95 435.554 509.392 435.627 509.875 435.627C510.495 435.627 511.037 435.509 511.502 435.272C511.967 435.035 512.354 434.666 512.664 434.164C512.983 433.654 513.22 433.002 513.375 432.209C513.53 431.407 513.607 430.45 513.607 429.338ZM522.604 427.957L520.58 427.438L521.578 417.526H531.791V419.864H523.725L523.123 425.278C523.488 425.068 523.948 424.872 524.504 424.69C525.069 424.507 525.716 424.416 526.445 424.416C527.366 424.416 528.191 424.576 528.92 424.895C529.649 425.205 530.269 425.651 530.779 426.235C531.299 426.818 531.695 427.52 531.969 428.34C532.242 429.16 532.379 430.076 532.379 431.088C532.379 432.045 532.247 432.925 531.982 433.727C531.727 434.529 531.34 435.231 530.82 435.832C530.301 436.425 529.645 436.885 528.852 437.213C528.068 437.541 527.143 437.705 526.076 437.705C525.274 437.705 524.513 437.596 523.793 437.377C523.082 437.149 522.444 436.808 521.879 436.352C521.323 435.887 520.867 435.313 520.512 434.629C520.165 433.936 519.947 433.125 519.855 432.196H522.262C522.371 432.943 522.59 433.572 522.918 434.082C523.246 434.593 523.674 434.98 524.203 435.244C524.741 435.5 525.365 435.627 526.076 435.627C526.678 435.627 527.211 435.522 527.676 435.313C528.141 435.103 528.533 434.802 528.852 434.41C529.171 434.018 529.412 433.545 529.576 432.989C529.749 432.433 529.836 431.808 529.836 431.115C529.836 430.487 529.749 429.903 529.576 429.365C529.403 428.828 529.143 428.358 528.797 427.957C528.46 427.556 528.045 427.246 527.553 427.028C527.061 426.8 526.495 426.686 525.857 426.686C525.01 426.686 524.367 426.8 523.93 427.028C523.501 427.255 523.059 427.565 522.604 427.957Z" fill="#8D2C30"/>
</svg>
