<svg width="668" height="496" viewBox="0 0 668 496" fill="none" xmlns="http://www.w3.org/2000/svg">
<path d="M2 0H339.5H666V93.4319H2V0Z" fill="#8D2C30"/>
<path d="M312 92.0032V494.271M312 494.271L2 494.271V2.55322H666L664.85 494.271L484 494.271M312 494.271H484M484 92.0032V494.271M2 173.361H664.85M2 92.0032H664.85" stroke="black" stroke-width="3"/>
<path d="M244.563 33.1172H248.904L255.295 51.3862L261.687 33.1172H266.028L257.039 58H253.552L244.563 33.1172ZM242.222 33.1172H246.545L247.332 50.9248V58H242.222V33.1172ZM264.045 33.1172H268.386V58H263.259V50.9248L264.045 33.1172ZM277.769 39.5088V58H272.83V39.5088H277.769ZM272.522 34.6895C272.522 33.9717 272.773 33.3792 273.274 32.9121C273.775 32.445 274.447 32.2114 275.291 32.2114C276.122 32.2114 276.789 32.445 277.29 32.9121C277.803 33.3792 278.059 33.9717 278.059 34.6895C278.059 35.4072 277.803 35.9997 277.29 36.4668C276.789 36.9339 276.122 37.1675 275.291 37.1675C274.447 37.1675 273.775 36.9339 273.274 36.4668C272.773 35.9997 272.522 35.4072 272.522 34.6895ZM287.031 31.75V58H282.092V31.75H287.031ZM296.021 31.7329V58H291.099V31.7329H296.021ZM307.676 39.5088L299.644 48.6689L295.337 53.0269L293.542 49.4722L296.96 45.1313L301.763 39.5088H307.676ZM302.566 58L297.097 49.4551L300.498 46.4814L308.24 58H302.566ZM328.508 49.1304H322.168V45.1313H328.508C329.488 45.1313 330.286 44.9718 330.901 44.6528C331.516 44.3224 331.966 43.8667 332.251 43.2856C332.536 42.7046 332.678 42.0495 332.678 41.3203C332.678 40.5798 332.536 39.8905 332.251 39.2524C331.966 38.6144 331.516 38.1017 330.901 37.7144C330.286 37.327 329.488 37.1333 328.508 37.1333H323.945V58H318.818V33.1172H328.508C330.457 33.1172 332.126 33.4704 333.516 34.1768C334.917 34.8717 335.988 35.8345 336.729 37.0649C337.469 38.2954 337.839 39.7025 337.839 41.2861C337.839 42.8926 337.469 44.2826 336.729 45.4561C335.988 46.6296 334.917 47.5353 333.516 48.1733C332.126 48.8114 330.457 49.1304 328.508 49.1304ZM345.991 43.542V58H341.069V39.5088H345.701L345.991 43.542ZM351.562 39.3892L351.477 43.9521C351.238 43.918 350.947 43.8895 350.605 43.8667C350.275 43.8325 349.973 43.8154 349.7 43.8154C349.005 43.8154 348.401 43.9066 347.888 44.0889C347.387 44.2598 346.965 44.5161 346.624 44.8579C346.293 45.1997 346.042 45.6156 345.872 46.1055C345.712 46.5954 345.621 47.1536 345.598 47.7803L344.607 47.4727C344.607 46.2764 344.727 45.1769 344.966 44.1743C345.205 43.1603 345.553 42.2773 346.008 41.5254C346.475 40.7734 347.045 40.1924 347.717 39.7822C348.389 39.3721 349.159 39.167 350.024 39.167C350.298 39.167 350.577 39.1898 350.862 39.2354C351.147 39.2695 351.38 39.3208 351.562 39.3892ZM359.082 39.5088V58H354.143V39.5088H359.082ZM353.835 34.6895C353.835 33.9717 354.086 33.3792 354.587 32.9121C355.089 32.445 355.761 32.2114 356.604 32.2114C357.436 32.2114 358.102 32.445 358.604 32.9121C359.116 33.3792 359.373 33.9717 359.373 34.6895C359.373 35.4072 359.116 35.9997 358.604 36.4668C358.102 36.9339 357.436 37.1675 356.604 37.1675C355.761 37.1675 355.089 36.9339 354.587 36.4668C354.086 35.9997 353.835 35.4072 353.835 34.6895ZM370.789 54.4966C371.392 54.4966 371.928 54.3826 372.395 54.1548C372.862 53.9155 373.227 53.5851 373.489 53.1636C373.762 52.7306 373.905 52.2236 373.916 51.6426H378.547C378.536 52.9414 378.188 54.0978 377.505 55.1118C376.821 56.1144 375.904 56.9062 374.753 57.4873C373.603 58.057 372.315 58.3418 370.891 58.3418C369.456 58.3418 368.202 58.1025 367.131 57.624C366.072 57.1455 365.189 56.4847 364.482 55.6416C363.776 54.7871 363.246 53.7959 362.893 52.668C362.54 51.5286 362.363 50.3096 362.363 49.0107V48.5151C362.363 47.2049 362.54 45.9858 362.893 44.8579C363.246 43.7186 363.776 42.7274 364.482 41.8843C365.189 41.0298 366.072 40.3633 367.131 39.8848C368.191 39.4062 369.433 39.167 370.857 39.167C372.372 39.167 373.7 39.4575 374.839 40.0386C375.99 40.6196 376.89 41.4513 377.539 42.5337C378.2 43.6047 378.536 44.875 378.547 46.3447H373.916C373.905 45.7295 373.774 45.1712 373.523 44.6699C373.284 44.1686 372.931 43.7699 372.463 43.4736C372.008 43.166 371.444 43.0122 370.771 43.0122C370.054 43.0122 369.467 43.166 369.011 43.4736C368.556 43.7699 368.202 44.18 367.952 44.7041C367.701 45.2168 367.524 45.8035 367.422 46.4644C367.331 47.1138 367.285 47.7974 367.285 48.5151V49.0107C367.285 49.7285 367.331 50.4178 367.422 51.0786C367.513 51.7394 367.684 52.3262 367.935 52.8389C368.197 53.3516 368.556 53.756 369.011 54.0522C369.467 54.3485 370.059 54.4966 370.789 54.4966ZM386.597 39.5088V58H381.658V39.5088H386.597ZM381.35 34.6895C381.35 33.9717 381.601 33.3792 382.102 32.9121C382.603 32.445 383.276 32.2114 384.119 32.2114C384.95 32.2114 385.617 32.445 386.118 32.9121C386.631 33.3792 386.887 33.9717 386.887 34.6895C386.887 35.4072 386.631 35.9997 386.118 36.4668C385.617 36.9339 384.95 37.1675 384.119 37.1675C383.276 37.1675 382.603 36.9339 382.102 36.4668C381.601 35.9997 381.35 35.4072 381.35 34.6895ZM395.483 43.4565V58H390.562V39.5088H395.176L395.483 43.4565ZM394.766 48.105H393.433C393.433 46.7378 393.609 45.5073 393.962 44.4136C394.316 43.3084 394.811 42.3685 395.449 41.5938C396.087 40.8076 396.845 40.2095 397.722 39.7993C398.611 39.3778 399.602 39.167 400.696 39.167C401.562 39.167 402.354 39.2923 403.071 39.543C403.789 39.7936 404.404 40.1924 404.917 40.7393C405.441 41.2861 405.84 42.0096 406.113 42.9097C406.398 43.8097 406.541 44.9092 406.541 46.208V58H401.584V46.1909C401.584 45.3706 401.471 44.7326 401.243 44.2769C401.015 43.8211 400.679 43.5021 400.234 43.3198C399.801 43.1261 399.266 43.0293 398.628 43.0293C397.967 43.0293 397.392 43.1603 396.902 43.4224C396.423 43.6844 396.025 44.049 395.706 44.5161C395.398 44.9718 395.164 45.5073 395.005 46.1226C394.845 46.7378 394.766 47.3986 394.766 48.105ZM421.99 39.5088H426.45V57.3848C426.45 59.071 426.074 60.5008 425.322 61.6743C424.582 62.8592 423.545 63.7536 422.212 64.3574C420.879 64.9727 419.329 65.2803 417.563 65.2803C416.789 65.2803 415.968 65.1777 415.103 64.9727C414.248 64.7676 413.428 64.4486 412.642 64.0156C411.867 63.5827 411.217 63.0358 410.693 62.375L412.864 59.4697C413.433 60.1305 414.094 60.6432 414.846 61.0078C415.598 61.3838 416.43 61.5718 417.341 61.5718C418.23 61.5718 418.982 61.4066 419.597 61.0762C420.212 60.7572 420.685 60.2843 421.016 59.6577C421.346 59.0425 421.511 58.2962 421.511 57.4189V43.7812L421.99 39.5088ZM409.548 48.9766V48.6177C409.548 47.2049 409.719 45.9232 410.061 44.7725C410.414 43.6104 410.91 42.6134 411.548 41.7817C412.197 40.95 412.983 40.3063 413.906 39.8506C414.829 39.3949 415.872 39.167 417.034 39.167C418.264 39.167 419.295 39.3949 420.127 39.8506C420.959 40.3063 421.642 40.9557 422.178 41.7988C422.713 42.6305 423.129 43.616 423.425 44.7554C423.733 45.8833 423.972 47.1195 424.143 48.4639V49.25C423.972 50.5374 423.716 51.7337 423.374 52.8389C423.032 53.944 422.582 54.9124 422.024 55.7441C421.466 56.5645 420.771 57.2025 419.939 57.6582C419.119 58.1139 418.139 58.3418 417 58.3418C415.86 58.3418 414.829 58.1082 413.906 57.6411C412.995 57.174 412.214 56.5189 411.565 55.6758C410.916 54.8327 410.414 53.8415 410.061 52.7021C409.719 51.5628 409.548 50.321 409.548 48.9766ZM414.47 48.6177V48.9766C414.47 49.7399 414.544 50.452 414.692 51.1128C414.84 51.7736 415.068 52.3604 415.376 52.873C415.695 53.3743 416.088 53.7674 416.555 54.0522C417.034 54.3257 417.598 54.4624 418.247 54.4624C419.147 54.4624 419.882 54.2744 420.452 53.8984C421.021 53.5111 421.449 52.9813 421.733 52.3091C422.018 51.6369 422.183 50.8621 422.229 49.9849V47.7461C422.206 47.0283 422.109 46.3846 421.938 45.8149C421.768 45.2339 421.528 44.7383 421.221 44.3281C420.913 43.918 420.514 43.599 420.024 43.3711C419.535 43.1432 418.953 43.0293 418.281 43.0293C417.632 43.0293 417.068 43.1774 416.589 43.4736C416.122 43.7585 415.729 44.1515 415.41 44.6528C415.103 45.1541 414.869 45.7466 414.709 46.4302C414.55 47.1024 414.47 47.8315 414.47 48.6177Z" fill="white"/>
<path d="M96.6504 124.543H100.123L105.236 139.158L110.35 124.543H113.822L106.631 144.449H103.842L96.6504 124.543ZM94.7773 124.543H98.2363L98.8652 138.789V144.449H94.7773V124.543ZM112.236 124.543H115.709V144.449H111.607V138.789L112.236 124.543ZM123.215 129.656V144.449H119.264V129.656H123.215ZM119.018 125.801C119.018 125.227 119.218 124.753 119.619 124.379C120.02 124.005 120.558 123.818 121.232 123.818C121.898 123.818 122.431 124.005 122.832 124.379C123.242 124.753 123.447 125.227 123.447 125.801C123.447 126.375 123.242 126.849 122.832 127.223C122.431 127.596 121.898 127.783 121.232 127.783C120.558 127.783 120.02 127.596 119.619 127.223C119.218 126.849 119.018 126.375 119.018 125.801ZM130.625 123.449V144.449H126.674V123.449H130.625ZM137.816 123.436V144.449H133.879V123.436H137.816ZM147.141 129.656L140.715 136.984L137.27 140.471L135.834 137.627L138.568 134.154L142.41 129.656H147.141ZM143.053 144.449L138.678 137.613L141.398 135.234L147.592 144.449H143.053ZM164.217 124.543V144.449H160.129V124.543H164.217ZM170.342 124.543V127.756H154.1V124.543H170.342ZM175.756 142.781L179.68 129.656H183.904L177.957 146.678C177.829 147.051 177.656 147.452 177.438 147.881C177.228 148.309 176.941 148.715 176.576 149.098C176.221 149.49 175.77 149.809 175.223 150.055C174.685 150.301 174.024 150.424 173.24 150.424C172.867 150.424 172.561 150.401 172.324 150.355C172.087 150.31 171.805 150.246 171.477 150.164V147.279C171.577 147.279 171.682 147.279 171.791 147.279C171.9 147.288 172.005 147.293 172.105 147.293C172.625 147.293 173.049 147.234 173.377 147.115C173.705 146.997 173.969 146.814 174.17 146.568C174.37 146.331 174.53 146.021 174.648 145.639L175.756 142.781ZM174.115 129.656L177.328 140.375L177.889 144.545L175.209 144.832L169.891 129.656H174.115ZM189.414 132.5V150.137H185.477V129.656H189.127L189.414 132.5ZM198.779 136.889V137.176C198.779 138.251 198.652 139.249 198.396 140.17C198.15 141.09 197.786 141.893 197.303 142.576C196.82 143.251 196.218 143.779 195.498 144.162C194.787 144.536 193.967 144.723 193.037 144.723C192.135 144.723 191.351 144.54 190.686 144.176C190.02 143.811 189.46 143.301 189.004 142.645C188.557 141.979 188.197 141.209 187.924 140.334C187.65 139.459 187.441 138.52 187.295 137.518V136.766C187.441 135.69 187.65 134.706 187.924 133.812C188.197 132.91 188.557 132.131 189.004 131.475C189.46 130.809 190.016 130.294 190.672 129.93C191.337 129.565 192.117 129.383 193.01 129.383C193.949 129.383 194.773 129.561 195.484 129.916C196.204 130.271 196.806 130.782 197.289 131.447C197.781 132.113 198.15 132.906 198.396 133.826C198.652 134.747 198.779 135.768 198.779 136.889ZM194.828 137.176V136.889C194.828 136.26 194.773 135.681 194.664 135.152C194.564 134.615 194.4 134.145 194.172 133.744C193.953 133.343 193.661 133.033 193.297 132.814C192.941 132.587 192.508 132.473 191.998 132.473C191.46 132.473 191 132.559 190.617 132.732C190.243 132.906 189.938 133.156 189.701 133.484C189.464 133.812 189.286 134.204 189.168 134.66C189.049 135.116 188.977 135.631 188.949 136.205V138.105C188.995 138.78 189.122 139.386 189.332 139.924C189.542 140.452 189.865 140.872 190.303 141.182C190.74 141.492 191.314 141.646 192.025 141.646C192.545 141.646 192.982 141.533 193.338 141.305C193.693 141.068 193.98 140.744 194.199 140.334C194.427 139.924 194.587 139.45 194.678 138.912C194.778 138.374 194.828 137.796 194.828 137.176ZM208.035 144.723C206.887 144.723 205.857 144.54 204.945 144.176C204.034 143.802 203.259 143.287 202.621 142.631C201.992 141.975 201.509 141.214 201.172 140.348C200.835 139.473 200.666 138.543 200.666 137.559V137.012C200.666 135.891 200.826 134.865 201.145 133.936C201.464 133.006 201.919 132.199 202.512 131.516C203.113 130.832 203.842 130.308 204.699 129.943C205.556 129.57 206.522 129.383 207.598 129.383C208.646 129.383 209.576 129.556 210.387 129.902C211.198 130.249 211.877 130.741 212.424 131.379C212.98 132.017 213.399 132.783 213.682 133.676C213.964 134.56 214.105 135.544 214.105 136.629V138.27H202.348V135.645H210.236V135.344C210.236 134.797 210.136 134.309 209.936 133.881C209.744 133.443 209.452 133.097 209.061 132.842C208.669 132.587 208.167 132.459 207.557 132.459C207.037 132.459 206.59 132.573 206.217 132.801C205.843 133.029 205.538 133.348 205.301 133.758C205.073 134.168 204.9 134.651 204.781 135.207C204.672 135.754 204.617 136.355 204.617 137.012V137.559C204.617 138.151 204.699 138.698 204.863 139.199C205.036 139.701 205.278 140.133 205.588 140.498C205.907 140.863 206.29 141.145 206.736 141.346C207.192 141.546 207.707 141.646 208.281 141.646C208.992 141.646 209.653 141.51 210.264 141.236C210.883 140.954 211.417 140.53 211.863 139.965L213.777 142.043C213.467 142.49 213.044 142.918 212.506 143.328C211.977 143.738 211.339 144.076 210.592 144.34C209.844 144.595 208.992 144.723 208.035 144.723Z" fill="#8D2C30"/>
<path d="M355.592 141.496L360.979 145.762L358.395 148.004L353.09 143.738L355.592 141.496ZM361.115 134.031V134.975C361.115 136.488 360.91 137.846 360.5 139.049C360.099 140.252 359.52 141.277 358.764 142.125C358.007 142.964 357.114 143.606 356.084 144.053C355.054 144.499 353.91 144.723 352.652 144.723C351.404 144.723 350.26 144.499 349.221 144.053C348.182 143.606 347.284 142.964 346.527 142.125C345.771 141.277 345.183 140.252 344.764 139.049C344.354 137.846 344.148 136.488 344.148 134.975V134.031C344.148 132.509 344.354 131.151 344.764 129.957C345.183 128.754 345.766 127.729 346.514 126.881C347.261 126.033 348.154 125.386 349.193 124.939C350.232 124.493 351.376 124.27 352.625 124.27C353.883 124.27 355.027 124.493 356.057 124.939C357.096 125.386 357.993 126.033 358.75 126.881C359.507 127.729 360.09 128.754 360.5 129.957C360.91 131.151 361.115 132.509 361.115 134.031ZM356.973 134.975V134.004C356.973 132.947 356.872 132.017 356.672 131.215C356.48 130.413 356.198 129.738 355.824 129.191C355.46 128.645 355.008 128.234 354.471 127.961C353.933 127.678 353.318 127.537 352.625 127.537C351.932 127.537 351.317 127.678 350.779 127.961C350.242 128.234 349.79 128.645 349.426 129.191C349.061 129.738 348.783 130.413 348.592 131.215C348.4 132.017 348.305 132.947 348.305 134.004V134.975C348.305 136.023 348.4 136.952 348.592 137.764C348.783 138.566 349.061 139.245 349.426 139.801C349.799 140.348 350.255 140.762 350.793 141.045C351.34 141.327 351.96 141.469 352.652 141.469C353.345 141.469 353.956 141.327 354.484 141.045C355.022 140.762 355.473 140.348 355.838 139.801C356.212 139.245 356.494 138.566 356.686 137.764C356.877 136.952 356.973 136.023 356.973 134.975ZM372.586 140.908V129.656H376.523V144.449H372.818L372.586 140.908ZM373.023 137.873L374.186 137.846C374.186 138.83 374.072 139.746 373.844 140.594C373.616 141.432 373.274 142.161 372.818 142.781C372.363 143.392 371.788 143.87 371.096 144.217C370.403 144.554 369.587 144.723 368.648 144.723C367.928 144.723 367.263 144.622 366.652 144.422C366.051 144.212 365.531 143.889 365.094 143.451C364.665 143.005 364.328 142.435 364.082 141.742C363.845 141.04 363.727 140.197 363.727 139.213V129.656H367.664V139.24C367.664 139.678 367.714 140.047 367.814 140.348C367.924 140.648 368.074 140.895 368.266 141.086C368.457 141.277 368.68 141.414 368.936 141.496C369.2 141.578 369.492 141.619 369.811 141.619C370.622 141.619 371.26 141.455 371.725 141.127C372.199 140.799 372.531 140.352 372.723 139.787C372.923 139.213 373.023 138.575 373.023 137.873ZM387.516 141.113V134.523C387.516 134.049 387.438 133.644 387.283 133.307C387.128 132.96 386.887 132.691 386.559 132.5C386.24 132.309 385.825 132.213 385.314 132.213C384.877 132.213 384.499 132.29 384.18 132.445C383.861 132.591 383.615 132.805 383.441 133.088C383.268 133.361 383.182 133.685 383.182 134.059H379.244C379.244 133.43 379.39 132.833 379.682 132.268C379.973 131.702 380.397 131.206 380.953 130.777C381.509 130.34 382.17 129.998 382.936 129.752C383.71 129.506 384.576 129.383 385.533 129.383C386.682 129.383 387.702 129.574 388.596 129.957C389.489 130.34 390.191 130.914 390.701 131.68C391.221 132.445 391.48 133.402 391.48 134.551V140.881C391.48 141.692 391.531 142.357 391.631 142.877C391.731 143.387 391.877 143.834 392.068 144.217V144.449H388.09C387.898 144.048 387.753 143.547 387.652 142.945C387.561 142.335 387.516 141.724 387.516 141.113ZM388.035 135.439L388.062 137.668H385.861C385.342 137.668 384.891 137.727 384.508 137.846C384.125 137.964 383.811 138.133 383.564 138.352C383.318 138.561 383.136 138.807 383.018 139.09C382.908 139.372 382.854 139.682 382.854 140.02C382.854 140.357 382.931 140.662 383.086 140.936C383.241 141.2 383.464 141.41 383.756 141.564C384.048 141.71 384.389 141.783 384.781 141.783C385.374 141.783 385.889 141.665 386.326 141.428C386.764 141.191 387.101 140.899 387.338 140.553C387.584 140.206 387.712 139.878 387.721 139.568L388.76 141.236C388.614 141.61 388.413 141.997 388.158 142.398C387.912 142.799 387.598 143.178 387.215 143.533C386.832 143.88 386.372 144.167 385.834 144.395C385.296 144.613 384.658 144.723 383.92 144.723C382.981 144.723 382.129 144.536 381.363 144.162C380.607 143.779 380.005 143.255 379.559 142.59C379.121 141.915 378.902 141.15 378.902 140.293C378.902 139.518 379.048 138.83 379.34 138.229C379.632 137.627 380.06 137.121 380.625 136.711C381.199 136.292 381.915 135.977 382.771 135.768C383.628 135.549 384.622 135.439 385.752 135.439H388.035ZM398.371 132.814V144.449H394.434V129.656H398.125L398.371 132.814ZM397.797 136.533H396.73C396.73 135.439 396.872 134.455 397.154 133.58C397.437 132.696 397.833 131.944 398.344 131.324C398.854 130.695 399.46 130.217 400.162 129.889C400.873 129.551 401.666 129.383 402.541 129.383C403.234 129.383 403.867 129.483 404.441 129.684C405.016 129.884 405.508 130.203 405.918 130.641C406.337 131.078 406.656 131.657 406.875 132.377C407.103 133.097 407.217 133.977 407.217 135.016V144.449H403.252V135.002C403.252 134.346 403.161 133.835 402.979 133.471C402.796 133.106 402.527 132.851 402.172 132.705C401.826 132.55 401.397 132.473 400.887 132.473C400.358 132.473 399.898 132.577 399.506 132.787C399.123 132.997 398.804 133.288 398.549 133.662C398.303 134.027 398.116 134.455 397.988 134.947C397.861 135.439 397.797 135.968 397.797 136.533ZM417.457 129.656V132.445H408.844V129.656H417.457ZM410.977 126.006H414.914V139.992C414.914 140.421 414.969 140.749 415.078 140.977C415.197 141.204 415.37 141.364 415.598 141.455C415.826 141.537 416.113 141.578 416.459 141.578C416.705 141.578 416.924 141.569 417.115 141.551C417.316 141.523 417.484 141.496 417.621 141.469L417.635 144.367C417.298 144.477 416.933 144.563 416.541 144.627C416.149 144.691 415.716 144.723 415.242 144.723C414.376 144.723 413.62 144.581 412.973 144.299C412.335 144.007 411.842 143.542 411.496 142.904C411.15 142.266 410.977 141.428 410.977 140.389V126.006ZM423.855 129.656V144.449H419.904V129.656H423.855ZM419.658 125.801C419.658 125.227 419.859 124.753 420.26 124.379C420.661 124.005 421.199 123.818 421.873 123.818C422.538 123.818 423.072 124.005 423.473 124.379C423.883 124.753 424.088 125.227 424.088 125.801C424.088 126.375 423.883 126.849 423.473 127.223C423.072 127.596 422.538 127.783 421.873 127.783C421.199 127.783 420.661 127.596 420.26 127.223C419.859 126.849 419.658 126.375 419.658 125.801ZM434.355 129.656V132.445H425.742V129.656H434.355ZM427.875 126.006H431.812V139.992C431.812 140.421 431.867 140.749 431.977 140.977C432.095 141.204 432.268 141.364 432.496 141.455C432.724 141.537 433.011 141.578 433.357 141.578C433.604 141.578 433.822 141.569 434.014 141.551C434.214 141.523 434.383 141.496 434.52 141.469L434.533 144.367C434.196 144.477 433.831 144.563 433.439 144.627C433.048 144.691 432.615 144.723 432.141 144.723C431.275 144.723 430.518 144.581 429.871 144.299C429.233 144.007 428.741 143.542 428.395 142.904C428.048 142.266 427.875 141.428 427.875 140.389V126.006ZM440.986 142.781L444.91 129.656H449.135L443.188 146.678C443.06 147.051 442.887 147.452 442.668 147.881C442.458 148.309 442.171 148.715 441.807 149.098C441.451 149.49 441 149.809 440.453 150.055C439.915 150.301 439.255 150.424 438.471 150.424C438.097 150.424 437.792 150.401 437.555 150.355C437.318 150.31 437.035 150.246 436.707 150.164V147.279C436.807 147.279 436.912 147.279 437.021 147.279C437.131 147.288 437.236 147.293 437.336 147.293C437.855 147.293 438.279 147.234 438.607 147.115C438.936 146.997 439.2 146.814 439.4 146.568C439.601 146.331 439.76 146.021 439.879 145.639L440.986 142.781ZM439.346 129.656L442.559 140.375L443.119 144.545L440.439 144.832L435.121 129.656H439.346Z" fill="#8D2C30"/>
<path d="M536.529 137.354H531.457V134.154H536.529C537.313 134.154 537.951 134.027 538.443 133.771C538.936 133.507 539.296 133.143 539.523 132.678C539.751 132.213 539.865 131.689 539.865 131.105C539.865 130.513 539.751 129.962 539.523 129.451C539.296 128.941 538.936 128.531 538.443 128.221C537.951 127.911 537.313 127.756 536.529 127.756H532.879V144.449H528.777V124.543H536.529C538.088 124.543 539.423 124.826 540.535 125.391C541.656 125.947 542.513 126.717 543.105 127.701C543.698 128.686 543.994 129.811 543.994 131.078C543.994 132.363 543.698 133.475 543.105 134.414C542.513 135.353 541.656 136.077 540.535 136.588C539.423 137.098 538.088 137.354 536.529 137.354ZM550.516 132.883V144.449H546.578V129.656H550.283L550.516 132.883ZM554.973 129.561L554.904 133.211C554.713 133.184 554.48 133.161 554.207 133.143C553.943 133.115 553.701 133.102 553.482 133.102C552.926 133.102 552.443 133.174 552.033 133.32C551.632 133.457 551.295 133.662 551.021 133.936C550.757 134.209 550.557 134.542 550.42 134.934C550.292 135.326 550.219 135.772 550.201 136.273L549.408 136.027C549.408 135.07 549.504 134.191 549.695 133.389C549.887 132.577 550.165 131.871 550.529 131.27C550.903 130.668 551.359 130.203 551.896 129.875C552.434 129.547 553.049 129.383 553.742 129.383C553.961 129.383 554.184 129.401 554.412 129.438C554.64 129.465 554.827 129.506 554.973 129.561ZM560.988 129.656V144.449H557.037V129.656H560.988ZM556.791 125.801C556.791 125.227 556.992 124.753 557.393 124.379C557.794 124.005 558.331 123.818 559.006 123.818C559.671 123.818 560.204 124.005 560.605 124.379C561.016 124.753 561.221 125.227 561.221 125.801C561.221 126.375 561.016 126.849 560.605 127.223C560.204 127.596 559.671 127.783 559.006 127.783C558.331 127.783 557.794 127.596 557.393 127.223C556.992 126.849 556.791 126.375 556.791 125.801ZM570.354 141.646C570.837 141.646 571.265 141.555 571.639 141.373C572.012 141.182 572.304 140.917 572.514 140.58C572.732 140.234 572.846 139.828 572.855 139.363H576.561C576.551 140.402 576.273 141.327 575.727 142.139C575.18 142.941 574.446 143.574 573.525 144.039C572.605 144.495 571.575 144.723 570.436 144.723C569.287 144.723 568.285 144.531 567.428 144.148C566.58 143.766 565.874 143.237 565.309 142.562C564.743 141.879 564.32 141.086 564.037 140.184C563.755 139.272 563.613 138.297 563.613 137.258V136.861C563.613 135.813 563.755 134.838 564.037 133.936C564.32 133.024 564.743 132.231 565.309 131.557C565.874 130.873 566.58 130.34 567.428 129.957C568.275 129.574 569.269 129.383 570.408 129.383C571.62 129.383 572.682 129.615 573.594 130.08C574.514 130.545 575.234 131.21 575.754 132.076C576.283 132.933 576.551 133.949 576.561 135.125H572.855C572.846 134.633 572.742 134.186 572.541 133.785C572.35 133.384 572.067 133.065 571.693 132.828C571.329 132.582 570.878 132.459 570.34 132.459C569.766 132.459 569.296 132.582 568.932 132.828C568.567 133.065 568.285 133.393 568.084 133.812C567.883 134.223 567.742 134.692 567.66 135.221C567.587 135.74 567.551 136.287 567.551 136.861V137.258C567.551 137.832 567.587 138.383 567.66 138.912C567.733 139.441 567.87 139.91 568.07 140.32C568.28 140.73 568.567 141.054 568.932 141.291C569.296 141.528 569.77 141.646 570.354 141.646ZM585.652 144.723C584.504 144.723 583.474 144.54 582.562 144.176C581.651 143.802 580.876 143.287 580.238 142.631C579.609 141.975 579.126 141.214 578.789 140.348C578.452 139.473 578.283 138.543 578.283 137.559V137.012C578.283 135.891 578.443 134.865 578.762 133.936C579.081 133.006 579.536 132.199 580.129 131.516C580.73 130.832 581.46 130.308 582.316 129.943C583.173 129.57 584.139 129.383 585.215 129.383C586.263 129.383 587.193 129.556 588.004 129.902C588.815 130.249 589.494 130.741 590.041 131.379C590.597 132.017 591.016 132.783 591.299 133.676C591.581 134.56 591.723 135.544 591.723 136.629V138.27H579.965V135.645H587.854V135.344C587.854 134.797 587.753 134.309 587.553 133.881C587.361 133.443 587.07 133.097 586.678 132.842C586.286 132.587 585.785 132.459 585.174 132.459C584.654 132.459 584.208 132.573 583.834 132.801C583.46 133.029 583.155 133.348 582.918 133.758C582.69 134.168 582.517 134.651 582.398 135.207C582.289 135.754 582.234 136.355 582.234 137.012V137.559C582.234 138.151 582.316 138.698 582.48 139.199C582.654 139.701 582.895 140.133 583.205 140.498C583.524 140.863 583.907 141.145 584.354 141.346C584.809 141.546 585.324 141.646 585.898 141.646C586.609 141.646 587.27 141.51 587.881 141.236C588.501 140.954 589.034 140.53 589.48 139.965L591.395 142.043C591.085 142.49 590.661 142.918 590.123 143.328C589.594 143.738 588.956 144.076 588.209 144.34C587.462 144.595 586.609 144.723 585.652 144.723Z" fill="#8D2C30"/>
<path d="M124.68 211.857L118.09 230H115.396L122.984 210.094H124.721L124.68 211.857ZM130.203 230L123.6 211.857L123.559 210.094H125.295L132.91 230H130.203ZM129.861 222.631V224.791H118.678V222.631H129.861ZM147.963 227.922V230H134.934V228.182L141.455 220.922C142.257 220.029 142.877 219.272 143.314 218.652C143.761 218.023 144.071 217.463 144.244 216.971C144.426 216.469 144.518 215.959 144.518 215.439C144.518 214.783 144.381 214.191 144.107 213.662C143.843 213.124 143.451 212.696 142.932 212.377C142.412 212.058 141.783 211.898 141.045 211.898C140.161 211.898 139.423 212.072 138.83 212.418C138.247 212.755 137.809 213.229 137.518 213.84C137.226 214.451 137.08 215.152 137.08 215.945H134.551C134.551 214.824 134.797 213.799 135.289 212.869C135.781 211.939 136.51 211.201 137.477 210.654C138.443 210.098 139.632 209.82 141.045 209.82C142.303 209.82 143.378 210.044 144.271 210.49C145.165 210.928 145.848 211.548 146.322 212.35C146.805 213.143 147.047 214.072 147.047 215.139C147.047 215.722 146.947 216.314 146.746 216.916C146.555 217.508 146.286 218.101 145.939 218.693C145.602 219.286 145.206 219.869 144.75 220.443C144.303 221.018 143.825 221.583 143.314 222.139L137.982 227.922H147.963ZM159.105 210.094H161.662L168.184 226.322L174.691 210.094H177.262L169.168 230H167.172L159.105 210.094ZM158.271 210.094H160.527L160.896 222.234V230H158.271V210.094ZM175.826 210.094H178.082V230H175.457V222.234L175.826 210.094ZM185.082 215.207V230H182.539V215.207H185.082ZM182.348 211.283C182.348 210.873 182.471 210.527 182.717 210.244C182.972 209.962 183.346 209.82 183.838 209.82C184.321 209.82 184.69 209.962 184.945 210.244C185.21 210.527 185.342 210.873 185.342 211.283C185.342 211.675 185.21 212.012 184.945 212.295C184.69 212.568 184.321 212.705 183.838 212.705C183.346 212.705 182.972 212.568 182.717 212.295C182.471 212.012 182.348 211.675 182.348 211.283ZM191.891 209V230H189.348V209H191.891ZM198.494 209V230H195.951V209H198.494ZM207.531 215.207L201.078 222.111L197.469 225.857L197.264 223.164L199.848 220.074L204.441 215.207H207.531ZM205.221 230L199.943 222.945L201.256 220.689L208.201 230H205.221ZM124.68 266.857L118.09 285H115.396L122.984 265.094H124.721L124.68 266.857ZM130.203 285L123.6 266.857L123.559 265.094H125.295L132.91 285H130.203ZM129.861 277.631V279.791H118.678V277.631H129.861ZM147.963 282.922V285H134.934V283.182L141.455 275.922C142.257 275.029 142.877 274.272 143.314 273.652C143.761 273.023 144.071 272.463 144.244 271.971C144.426 271.469 144.518 270.959 144.518 270.439C144.518 269.783 144.381 269.191 144.107 268.662C143.843 268.124 143.451 267.696 142.932 267.377C142.412 267.058 141.783 266.898 141.045 266.898C140.161 266.898 139.423 267.072 138.83 267.418C138.247 267.755 137.809 268.229 137.518 268.84C137.226 269.451 137.08 270.152 137.08 270.945H134.551C134.551 269.824 134.797 268.799 135.289 267.869C135.781 266.939 136.51 266.201 137.477 265.654C138.443 265.098 139.632 264.82 141.045 264.82C142.303 264.82 143.378 265.044 144.271 265.49C145.165 265.928 145.848 266.548 146.322 267.35C146.805 268.143 147.047 269.072 147.047 270.139C147.047 270.722 146.947 271.314 146.746 271.916C146.555 272.508 146.286 273.101 145.939 273.693C145.602 274.286 145.206 274.869 144.75 275.443C144.303 276.018 143.825 276.583 143.314 277.139L137.982 282.922H147.963ZM159.105 265.094H161.662L168.184 281.322L174.691 265.094H177.262L169.168 285H167.172L159.105 265.094ZM158.271 265.094H160.527L160.896 277.234V285H158.271V265.094ZM175.826 265.094H178.082V285H175.457V277.234L175.826 265.094ZM185.082 270.207V285H182.539V270.207H185.082ZM182.348 266.283C182.348 265.873 182.471 265.527 182.717 265.244C182.972 264.962 183.346 264.82 183.838 264.82C184.321 264.82 184.69 264.962 184.945 265.244C185.21 265.527 185.342 265.873 185.342 266.283C185.342 266.675 185.21 267.012 184.945 267.295C184.69 267.568 184.321 267.705 183.838 267.705C183.346 267.705 182.972 267.568 182.717 267.295C182.471 267.012 182.348 266.675 182.348 266.283ZM191.891 264V285H189.348V264H191.891ZM198.494 264V285H195.951V264H198.494ZM207.531 270.207L201.078 277.111L197.469 280.857L197.264 278.164L199.848 275.074L204.441 270.207H207.531ZM205.221 285L199.943 277.945L201.256 275.689L208.201 285H205.221ZM124.68 321.857L118.09 340H115.396L122.984 320.094H124.721L124.68 321.857ZM130.203 340L123.6 321.857L123.559 320.094H125.295L132.91 340H130.203ZM129.861 332.631V334.791H118.678V332.631H129.861ZM147.963 337.922V340H134.934V338.182L141.455 330.922C142.257 330.029 142.877 329.272 143.314 328.652C143.761 328.023 144.071 327.463 144.244 326.971C144.426 326.469 144.518 325.959 144.518 325.439C144.518 324.783 144.381 324.191 144.107 323.662C143.843 323.124 143.451 322.696 142.932 322.377C142.412 322.058 141.783 321.898 141.045 321.898C140.161 321.898 139.423 322.072 138.83 322.418C138.247 322.755 137.809 323.229 137.518 323.84C137.226 324.451 137.08 325.152 137.08 325.945H134.551C134.551 324.824 134.797 323.799 135.289 322.869C135.781 321.939 136.51 321.201 137.477 320.654C138.443 320.098 139.632 319.82 141.045 319.82C142.303 319.82 143.378 320.044 144.271 320.49C145.165 320.928 145.848 321.548 146.322 322.35C146.805 323.143 147.047 324.072 147.047 325.139C147.047 325.722 146.947 326.314 146.746 326.916C146.555 327.508 146.286 328.101 145.939 328.693C145.602 329.286 145.206 329.869 144.75 330.443C144.303 331.018 143.825 331.583 143.314 332.139L137.982 337.922H147.963ZM159.105 320.094H161.662L168.184 336.322L174.691 320.094H177.262L169.168 340H167.172L159.105 320.094ZM158.271 320.094H160.527L160.896 332.234V340H158.271V320.094ZM175.826 320.094H178.082V340H175.457V332.234L175.826 320.094ZM185.082 325.207V340H182.539V325.207H185.082ZM182.348 321.283C182.348 320.873 182.471 320.527 182.717 320.244C182.972 319.962 183.346 319.82 183.838 319.82C184.321 319.82 184.69 319.962 184.945 320.244C185.21 320.527 185.342 320.873 185.342 321.283C185.342 321.675 185.21 322.012 184.945 322.295C184.69 322.568 184.321 322.705 183.838 322.705C183.346 322.705 182.972 322.568 182.717 322.295C182.471 322.012 182.348 321.675 182.348 321.283ZM191.891 319V340H189.348V319H191.891ZM198.494 319V340H195.951V319H198.494ZM207.531 325.207L201.078 332.111L197.469 335.857L197.264 333.164L199.848 330.074L204.441 325.207H207.531ZM205.221 340L199.943 332.945L201.256 330.689L208.201 340H205.221ZM124.68 376.857L118.09 395H115.396L122.984 375.094H124.721L124.68 376.857ZM130.203 395L123.6 376.857L123.559 375.094H125.295L132.91 395H130.203ZM129.861 387.631V389.791H118.678V387.631H129.861ZM147.963 392.922V395H134.934V393.182L141.455 385.922C142.257 385.029 142.877 384.272 143.314 383.652C143.761 383.023 144.071 382.463 144.244 381.971C144.426 381.469 144.518 380.959 144.518 380.439C144.518 379.783 144.381 379.191 144.107 378.662C143.843 378.124 143.451 377.696 142.932 377.377C142.412 377.058 141.783 376.898 141.045 376.898C140.161 376.898 139.423 377.072 138.83 377.418C138.247 377.755 137.809 378.229 137.518 378.84C137.226 379.451 137.08 380.152 137.08 380.945H134.551C134.551 379.824 134.797 378.799 135.289 377.869C135.781 376.939 136.51 376.201 137.477 375.654C138.443 375.098 139.632 374.82 141.045 374.82C142.303 374.82 143.378 375.044 144.271 375.49C145.165 375.928 145.848 376.548 146.322 377.35C146.805 378.143 147.047 379.072 147.047 380.139C147.047 380.722 146.947 381.314 146.746 381.916C146.555 382.508 146.286 383.101 145.939 383.693C145.602 384.286 145.206 384.869 144.75 385.443C144.303 386.018 143.825 386.583 143.314 387.139L137.982 392.922H147.963ZM159.105 375.094H161.662L168.184 391.322L174.691 375.094H177.262L169.168 395H167.172L159.105 375.094ZM158.271 375.094H160.527L160.896 387.234V395H158.271V375.094ZM175.826 375.094H178.082V395H175.457V387.234L175.826 375.094ZM185.082 380.207V395H182.539V380.207H185.082ZM182.348 376.283C182.348 375.873 182.471 375.527 182.717 375.244C182.972 374.962 183.346 374.82 183.838 374.82C184.321 374.82 184.69 374.962 184.945 375.244C185.21 375.527 185.342 375.873 185.342 376.283C185.342 376.675 185.21 377.012 184.945 377.295C184.69 377.568 184.321 377.705 183.838 377.705C183.346 377.705 182.972 377.568 182.717 377.295C182.471 377.012 182.348 376.675 182.348 376.283ZM191.891 374V395H189.348V374H191.891ZM198.494 374V395H195.951V374H198.494ZM207.531 380.207L201.078 387.111L197.469 390.857L197.264 388.164L199.848 385.074L204.441 380.207H207.531ZM205.221 395L199.943 387.945L201.256 385.689L208.201 395H205.221ZM124.68 431.857L118.09 450H115.396L122.984 430.094H124.721L124.68 431.857ZM130.203 450L123.6 431.857L123.559 430.094H125.295L132.91 450H130.203ZM129.861 442.631V444.791H118.678V442.631H129.861ZM147.963 447.922V450H134.934V448.182L141.455 440.922C142.257 440.029 142.877 439.272 143.314 438.652C143.761 438.023 144.071 437.463 144.244 436.971C144.426 436.469 144.518 435.959 144.518 435.439C144.518 434.783 144.381 434.191 144.107 433.662C143.843 433.124 143.451 432.696 142.932 432.377C142.412 432.058 141.783 431.898 141.045 431.898C140.161 431.898 139.423 432.072 138.83 432.418C138.247 432.755 137.809 433.229 137.518 433.84C137.226 434.451 137.08 435.152 137.08 435.945H134.551C134.551 434.824 134.797 433.799 135.289 432.869C135.781 431.939 136.51 431.201 137.477 430.654C138.443 430.098 139.632 429.82 141.045 429.82C142.303 429.82 143.378 430.044 144.271 430.49C145.165 430.928 145.848 431.548 146.322 432.35C146.805 433.143 147.047 434.072 147.047 435.139C147.047 435.722 146.947 436.314 146.746 436.916C146.555 437.508 146.286 438.101 145.939 438.693C145.602 439.286 145.206 439.869 144.75 440.443C144.303 441.018 143.825 441.583 143.314 442.139L137.982 447.922H147.963ZM159.105 430.094H161.662L168.184 446.322L174.691 430.094H177.262L169.168 450H167.172L159.105 430.094ZM158.271 430.094H160.527L160.896 442.234V450H158.271V430.094ZM175.826 430.094H178.082V450H175.457V442.234L175.826 430.094ZM185.082 435.207V450H182.539V435.207H185.082ZM182.348 431.283C182.348 430.873 182.471 430.527 182.717 430.244C182.972 429.962 183.346 429.82 183.838 429.82C184.321 429.82 184.69 429.962 184.945 430.244C185.21 430.527 185.342 430.873 185.342 431.283C185.342 431.675 185.21 432.012 184.945 432.295C184.69 432.568 184.321 432.705 183.838 432.705C183.346 432.705 182.972 432.568 182.717 432.295C182.471 432.012 182.348 431.675 182.348 431.283ZM191.891 429V450H189.348V429H191.891ZM198.494 429V450H195.951V429H198.494ZM207.531 435.207L201.078 442.111L197.469 445.857L197.264 443.164L199.848 440.074L204.441 435.207H207.531ZM205.221 450L199.943 442.945L201.256 440.689L208.201 450H205.221Z" fill="#8D2C30"/>
<path d="M366.15 218.726V221.761C366.15 223.392 366.005 224.769 365.713 225.89C365.421 227.011 365.002 227.913 364.455 228.597C363.908 229.28 363.247 229.777 362.473 230.087C361.707 230.388 360.841 230.538 359.875 230.538C359.109 230.538 358.403 230.442 357.756 230.251C357.109 230.06 356.525 229.754 356.006 229.335C355.495 228.907 355.058 228.351 354.693 227.667C354.329 226.983 354.051 226.154 353.859 225.179C353.668 224.203 353.572 223.064 353.572 221.761V218.726C353.572 217.094 353.718 215.727 354.01 214.624C354.311 213.521 354.734 212.637 355.281 211.972C355.828 211.297 356.484 210.814 357.25 210.522C358.025 210.231 358.891 210.085 359.848 210.085C360.622 210.085 361.333 210.181 361.98 210.372C362.637 210.554 363.22 210.851 363.73 211.261C364.241 211.662 364.674 212.2 365.029 212.874C365.394 213.539 365.672 214.355 365.863 215.321C366.055 216.287 366.15 217.422 366.15 218.726ZM363.607 222.171V218.302C363.607 217.409 363.553 216.625 363.443 215.95C363.343 215.267 363.193 214.683 362.992 214.2C362.792 213.717 362.536 213.325 362.227 213.024C361.926 212.724 361.575 212.505 361.174 212.368C360.782 212.222 360.34 212.149 359.848 212.149C359.246 212.149 358.713 212.263 358.248 212.491C357.783 212.71 357.391 213.061 357.072 213.544C356.762 214.027 356.525 214.66 356.361 215.444C356.197 216.228 356.115 217.181 356.115 218.302V222.171C356.115 223.064 356.165 223.853 356.266 224.536C356.375 225.22 356.535 225.812 356.744 226.313C356.954 226.806 357.209 227.211 357.51 227.53C357.811 227.849 358.157 228.086 358.549 228.241C358.95 228.387 359.392 228.46 359.875 228.46C360.495 228.46 361.037 228.341 361.502 228.104C361.967 227.868 362.354 227.498 362.664 226.997C362.983 226.487 363.22 225.835 363.375 225.042C363.53 224.24 363.607 223.283 363.607 222.171ZM369.719 228.925C369.719 228.496 369.851 228.136 370.115 227.845C370.389 227.544 370.781 227.394 371.291 227.394C371.801 227.394 372.189 227.544 372.453 227.845C372.727 228.136 372.863 228.496 372.863 228.925C372.863 229.344 372.727 229.7 372.453 229.991C372.189 230.283 371.801 230.429 371.291 230.429C370.781 230.429 370.389 230.283 370.115 229.991C369.851 229.7 369.719 229.344 369.719 228.925ZM379.986 220.79L377.963 220.271L378.961 210.358H389.174V212.696H381.107L380.506 218.11C380.87 217.901 381.331 217.705 381.887 217.522C382.452 217.34 383.099 217.249 383.828 217.249C384.749 217.249 385.574 217.409 386.303 217.728C387.032 218.037 387.652 218.484 388.162 219.067C388.682 219.651 389.078 220.353 389.352 221.173C389.625 221.993 389.762 222.909 389.762 223.921C389.762 224.878 389.63 225.757 389.365 226.56C389.11 227.362 388.723 228.063 388.203 228.665C387.684 229.257 387.027 229.718 386.234 230.046C385.451 230.374 384.525 230.538 383.459 230.538C382.657 230.538 381.896 230.429 381.176 230.21C380.465 229.982 379.827 229.64 379.262 229.185C378.706 228.72 378.25 228.146 377.895 227.462C377.548 226.769 377.329 225.958 377.238 225.028H379.645C379.754 225.776 379.973 226.405 380.301 226.915C380.629 227.425 381.057 227.813 381.586 228.077C382.124 228.332 382.748 228.46 383.459 228.46C384.061 228.46 384.594 228.355 385.059 228.146C385.523 227.936 385.915 227.635 386.234 227.243C386.553 226.851 386.795 226.377 386.959 225.821C387.132 225.265 387.219 224.641 387.219 223.948C387.219 223.319 387.132 222.736 386.959 222.198C386.786 221.66 386.526 221.191 386.18 220.79C385.842 220.389 385.428 220.079 384.936 219.86C384.443 219.632 383.878 219.519 383.24 219.519C382.393 219.519 381.75 219.632 381.312 219.86C380.884 220.088 380.442 220.398 379.986 220.79ZM402.504 209.265V230.265H399.961V209.265H402.504ZM412.758 215.472V217.413H404.76V215.472H412.758ZM407.467 211.876H409.996V226.601C409.996 227.102 410.074 227.48 410.229 227.735C410.383 227.991 410.584 228.159 410.83 228.241C411.076 228.323 411.34 228.364 411.623 228.364C411.833 228.364 412.051 228.346 412.279 228.31C412.516 228.264 412.694 228.228 412.812 228.2L412.826 230.265C412.626 230.328 412.361 230.388 412.033 230.442C411.714 230.506 411.327 230.538 410.871 230.538C410.251 230.538 409.682 230.415 409.162 230.169C408.643 229.923 408.228 229.513 407.918 228.938C407.617 228.355 407.467 227.571 407.467 226.587V211.876ZM418.254 217.796V230.265H415.725V215.472H418.186L418.254 217.796ZM422.875 215.39L422.861 217.741C422.652 217.696 422.451 217.668 422.26 217.659C422.077 217.641 421.868 217.632 421.631 217.632C421.048 217.632 420.533 217.723 420.086 217.905C419.639 218.088 419.261 218.343 418.951 218.671C418.641 218.999 418.395 219.391 418.213 219.847C418.04 220.293 417.926 220.785 417.871 221.323L417.16 221.733C417.16 220.84 417.247 220.002 417.42 219.218C417.602 218.434 417.88 217.741 418.254 217.14C418.628 216.529 419.102 216.055 419.676 215.718C420.259 215.371 420.952 215.198 421.754 215.198C421.936 215.198 422.146 215.221 422.383 215.267C422.62 215.303 422.784 215.344 422.875 215.39ZM423.559 228.925C423.559 228.496 423.691 228.136 423.955 227.845C424.229 227.544 424.62 227.394 425.131 227.394C425.641 227.394 426.029 227.544 426.293 227.845C426.566 228.136 426.703 228.496 426.703 228.925C426.703 229.344 426.566 229.7 426.293 229.991C426.029 230.283 425.641 230.429 425.131 230.429C424.62 230.429 424.229 230.283 423.955 229.991C423.691 229.7 423.559 229.344 423.559 228.925Z" fill="#8D2C30"/>
<path d="M524.141 210.094V230H521.502V210.094H524.141ZM544.252 210.094V230H541.6L531.578 214.646V230H528.939V210.094H531.578L541.641 225.488V210.094H544.252ZM548.928 210.094H555.518C557.012 210.094 558.275 210.322 559.305 210.777C560.344 211.233 561.132 211.908 561.67 212.801C562.217 213.685 562.49 214.774 562.49 216.068C562.49 216.98 562.303 217.814 561.93 218.57C561.565 219.318 561.036 219.956 560.344 220.484C559.66 221.004 558.84 221.391 557.883 221.646L557.145 221.934H550.951L550.924 219.787H555.6C556.548 219.787 557.336 219.623 557.965 219.295C558.594 218.958 559.068 218.507 559.387 217.941C559.706 217.376 559.865 216.752 559.865 216.068C559.865 215.303 559.715 214.633 559.414 214.059C559.113 213.484 558.639 213.042 557.992 212.732C557.354 212.413 556.529 212.254 555.518 212.254H551.566V230H548.928V210.094ZM560.562 230L555.723 220.977L558.471 220.963L563.379 229.836V230H560.562ZM582.178 210.066H582.396V212.213H582.178C580.838 212.213 579.717 212.432 578.814 212.869C577.912 213.298 577.197 213.876 576.668 214.605C576.139 215.326 575.757 216.137 575.52 217.039C575.292 217.941 575.178 218.857 575.178 219.787V222.713C575.178 223.597 575.283 224.381 575.492 225.064C575.702 225.739 575.989 226.309 576.354 226.773C576.718 227.238 577.128 227.589 577.584 227.826C578.049 228.063 578.532 228.182 579.033 228.182C579.617 228.182 580.136 228.072 580.592 227.854C581.048 227.626 581.43 227.311 581.74 226.91C582.059 226.5 582.301 226.017 582.465 225.461C582.629 224.905 582.711 224.294 582.711 223.629C582.711 223.036 582.638 222.467 582.492 221.92C582.346 221.364 582.123 220.872 581.822 220.443C581.521 220.006 581.143 219.664 580.688 219.418C580.241 219.163 579.708 219.035 579.088 219.035C578.386 219.035 577.73 219.208 577.119 219.555C576.518 219.892 576.021 220.339 575.629 220.895C575.246 221.441 575.027 222.038 574.973 222.686L573.633 222.672C573.76 221.651 573.997 220.781 574.344 220.061C574.699 219.331 575.137 218.739 575.656 218.283C576.185 217.818 576.773 217.481 577.42 217.271C578.076 217.053 578.769 216.943 579.498 216.943C580.492 216.943 581.348 217.13 582.068 217.504C582.788 217.878 583.381 218.379 583.846 219.008C584.311 219.628 584.652 220.329 584.871 221.113C585.099 221.888 585.213 222.686 585.213 223.506C585.213 224.445 585.081 225.324 584.816 226.145C584.552 226.965 584.156 227.685 583.627 228.305C583.107 228.924 582.465 229.408 581.699 229.754C580.934 230.1 580.045 230.273 579.033 230.273C577.958 230.273 577.019 230.055 576.217 229.617C575.415 229.171 574.749 228.578 574.221 227.84C573.692 227.102 573.296 226.281 573.031 225.379C572.767 224.477 572.635 223.561 572.635 222.631V221.441C572.635 220.038 572.776 218.661 573.059 217.312C573.341 215.964 573.829 214.742 574.521 213.648C575.223 212.555 576.194 211.684 577.434 211.037C578.673 210.39 580.255 210.066 582.178 210.066ZM600.717 218.461V221.496C600.717 223.128 600.571 224.504 600.279 225.625C599.988 226.746 599.568 227.648 599.021 228.332C598.475 229.016 597.814 229.512 597.039 229.822C596.273 230.123 595.408 230.273 594.441 230.273C593.676 230.273 592.969 230.178 592.322 229.986C591.675 229.795 591.092 229.49 590.572 229.07C590.062 228.642 589.624 228.086 589.26 227.402C588.895 226.719 588.617 225.889 588.426 224.914C588.234 223.939 588.139 222.799 588.139 221.496V218.461C588.139 216.829 588.285 215.462 588.576 214.359C588.877 213.257 589.301 212.372 589.848 211.707C590.395 211.033 591.051 210.549 591.816 210.258C592.591 209.966 593.457 209.82 594.414 209.82C595.189 209.82 595.9 209.916 596.547 210.107C597.203 210.29 597.786 210.586 598.297 210.996C598.807 211.397 599.24 211.935 599.596 212.609C599.96 213.275 600.238 214.09 600.43 215.057C600.621 216.023 600.717 217.158 600.717 218.461ZM598.174 221.906V218.037C598.174 217.144 598.119 216.36 598.01 215.686C597.91 215.002 597.759 214.419 597.559 213.936C597.358 213.452 597.103 213.061 596.793 212.76C596.492 212.459 596.141 212.24 595.74 212.104C595.348 211.958 594.906 211.885 594.414 211.885C593.812 211.885 593.279 211.999 592.814 212.227C592.35 212.445 591.958 212.796 591.639 213.279C591.329 213.762 591.092 214.396 590.928 215.18C590.764 215.964 590.682 216.916 590.682 218.037V221.906C590.682 222.799 590.732 223.588 590.832 224.271C590.941 224.955 591.101 225.548 591.311 226.049C591.52 226.541 591.775 226.947 592.076 227.266C592.377 227.585 592.723 227.822 593.115 227.977C593.516 228.122 593.958 228.195 594.441 228.195C595.061 228.195 595.604 228.077 596.068 227.84C596.533 227.603 596.921 227.234 597.23 226.732C597.549 226.222 597.786 225.57 597.941 224.777C598.096 223.975 598.174 223.018 598.174 221.906Z" fill="#8D2C30"/>
<path d="M361.967 264.368V284.384H359.438V267.526L354.338 269.386V267.103L361.57 264.368H361.967ZM379.371 263.384V284.384H376.828V263.384H379.371ZM389.625 269.591V271.532H381.627V269.591H389.625ZM384.334 265.995H386.863V280.72C386.863 281.221 386.941 281.599 387.096 281.854C387.251 282.11 387.451 282.278 387.697 282.36C387.943 282.442 388.208 282.483 388.49 282.483C388.7 282.483 388.919 282.465 389.146 282.429C389.383 282.383 389.561 282.347 389.68 282.319L389.693 284.384C389.493 284.448 389.229 284.507 388.9 284.562C388.581 284.625 388.194 284.657 387.738 284.657C387.118 284.657 386.549 284.534 386.029 284.288C385.51 284.042 385.095 283.632 384.785 283.058C384.484 282.474 384.334 281.69 384.334 280.706V265.995ZM395.121 271.915V284.384H392.592V269.591H395.053L395.121 271.915ZM399.742 269.509L399.729 271.86C399.519 271.815 399.318 271.787 399.127 271.778C398.945 271.76 398.735 271.751 398.498 271.751C397.915 271.751 397.4 271.842 396.953 272.024C396.507 272.207 396.128 272.462 395.818 272.79C395.508 273.118 395.262 273.51 395.08 273.966C394.907 274.412 394.793 274.905 394.738 275.442L394.027 275.853C394.027 274.959 394.114 274.121 394.287 273.337C394.469 272.553 394.747 271.86 395.121 271.259C395.495 270.648 395.969 270.174 396.543 269.837C397.126 269.491 397.819 269.317 398.621 269.317C398.803 269.317 399.013 269.34 399.25 269.386C399.487 269.422 399.651 269.463 399.742 269.509ZM400.426 283.044C400.426 282.616 400.558 282.256 400.822 281.964C401.096 281.663 401.488 281.513 401.998 281.513C402.508 281.513 402.896 281.663 403.16 281.964C403.434 282.256 403.57 282.616 403.57 283.044C403.57 283.463 403.434 283.819 403.16 284.11C402.896 284.402 402.508 284.548 401.998 284.548C401.488 284.548 401.096 284.402 400.822 284.11C400.558 283.819 400.426 283.463 400.426 283.044Z" fill="#8D2C30"/>
<path d="M524.141 264.094V284H521.502V264.094H524.141ZM544.252 264.094V284H541.6L531.578 268.646V284H528.939V264.094H531.578L541.641 279.488V264.094H544.252ZM548.928 264.094H555.518C557.012 264.094 558.275 264.322 559.305 264.777C560.344 265.233 561.132 265.908 561.67 266.801C562.217 267.685 562.49 268.774 562.49 270.068C562.49 270.98 562.303 271.814 561.93 272.57C561.565 273.318 561.036 273.956 560.344 274.484C559.66 275.004 558.84 275.391 557.883 275.646L557.145 275.934H550.951L550.924 273.787H555.6C556.548 273.787 557.336 273.623 557.965 273.295C558.594 272.958 559.068 272.507 559.387 271.941C559.706 271.376 559.865 270.752 559.865 270.068C559.865 269.303 559.715 268.633 559.414 268.059C559.113 267.484 558.639 267.042 557.992 266.732C557.354 266.413 556.529 266.254 555.518 266.254H551.566V284H548.928V264.094ZM560.562 284L555.723 274.977L558.471 274.963L563.379 283.836V284H560.562ZM580.783 263.984V284H578.254V267.143L573.154 269.002V266.719L580.387 263.984H580.783ZM596.533 263.984V284H594.004V267.143L588.904 269.002V266.719L596.137 263.984H596.533ZM616.467 272.461V275.496C616.467 277.128 616.321 278.504 616.029 279.625C615.738 280.746 615.318 281.648 614.771 282.332C614.225 283.016 613.564 283.512 612.789 283.822C612.023 284.123 611.158 284.273 610.191 284.273C609.426 284.273 608.719 284.178 608.072 283.986C607.425 283.795 606.842 283.49 606.322 283.07C605.812 282.642 605.374 282.086 605.01 281.402C604.645 280.719 604.367 279.889 604.176 278.914C603.984 277.939 603.889 276.799 603.889 275.496V272.461C603.889 270.829 604.035 269.462 604.326 268.359C604.627 267.257 605.051 266.372 605.598 265.707C606.145 265.033 606.801 264.549 607.566 264.258C608.341 263.966 609.207 263.82 610.164 263.82C610.939 263.82 611.65 263.916 612.297 264.107C612.953 264.29 613.536 264.586 614.047 264.996C614.557 265.397 614.99 265.935 615.346 266.609C615.71 267.275 615.988 268.09 616.18 269.057C616.371 270.023 616.467 271.158 616.467 272.461ZM613.924 275.906V272.037C613.924 271.144 613.869 270.36 613.76 269.686C613.66 269.002 613.509 268.419 613.309 267.936C613.108 267.452 612.853 267.061 612.543 266.76C612.242 266.459 611.891 266.24 611.49 266.104C611.098 265.958 610.656 265.885 610.164 265.885C609.562 265.885 609.029 265.999 608.564 266.227C608.1 266.445 607.708 266.796 607.389 267.279C607.079 267.762 606.842 268.396 606.678 269.18C606.514 269.964 606.432 270.916 606.432 272.037V275.906C606.432 276.799 606.482 277.588 606.582 278.271C606.691 278.955 606.851 279.548 607.061 280.049C607.27 280.541 607.525 280.947 607.826 281.266C608.127 281.585 608.473 281.822 608.865 281.977C609.266 282.122 609.708 282.195 610.191 282.195C610.811 282.195 611.354 282.077 611.818 281.84C612.283 281.603 612.671 281.234 612.98 280.732C613.299 280.222 613.536 279.57 613.691 278.777C613.846 277.975 613.924 277.018 613.924 275.906Z" fill="#8D2C30"/>
<path d="M366.697 336.425V338.503H353.668V336.685L360.189 329.425C360.992 328.532 361.611 327.775 362.049 327.155C362.495 326.526 362.805 325.966 362.979 325.474C363.161 324.972 363.252 324.462 363.252 323.942C363.252 323.286 363.115 322.694 362.842 322.165C362.577 321.627 362.186 321.199 361.666 320.88C361.146 320.561 360.518 320.401 359.779 320.401C358.895 320.401 358.157 320.575 357.564 320.921C356.981 321.258 356.544 321.732 356.252 322.343C355.96 322.953 355.814 323.655 355.814 324.448H353.285C353.285 323.327 353.531 322.302 354.023 321.372C354.516 320.442 355.245 319.704 356.211 319.157C357.177 318.601 358.367 318.323 359.779 318.323C361.037 318.323 362.113 318.547 363.006 318.993C363.899 319.431 364.583 320.05 365.057 320.853C365.54 321.646 365.781 322.575 365.781 323.642C365.781 324.225 365.681 324.817 365.48 325.419C365.289 326.011 365.02 326.604 364.674 327.196C364.337 327.789 363.94 328.372 363.484 328.946C363.038 329.521 362.559 330.086 362.049 330.642L356.717 336.425H366.697ZM379.371 317.503V338.503H376.828V317.503H379.371ZM389.625 323.71V325.651H381.627V323.71H389.625ZM384.334 320.114H386.863V334.839C386.863 335.34 386.941 335.718 387.096 335.974C387.251 336.229 387.451 336.397 387.697 336.479C387.943 336.562 388.208 336.603 388.49 336.603C388.7 336.603 388.919 336.584 389.146 336.548C389.383 336.502 389.561 336.466 389.68 336.438L389.693 338.503C389.493 338.567 389.229 338.626 388.9 338.681C388.581 338.744 388.194 338.776 387.738 338.776C387.118 338.776 386.549 338.653 386.029 338.407C385.51 338.161 385.095 337.751 384.785 337.177C384.484 336.593 384.334 335.81 384.334 334.825V320.114ZM395.121 326.034V338.503H392.592V323.71H395.053L395.121 326.034ZM399.742 323.628L399.729 325.979C399.519 325.934 399.318 325.907 399.127 325.897C398.945 325.879 398.735 325.87 398.498 325.87C397.915 325.87 397.4 325.961 396.953 326.144C396.507 326.326 396.128 326.581 395.818 326.909C395.508 327.237 395.262 327.629 395.08 328.085C394.907 328.532 394.793 329.024 394.738 329.562L394.027 329.972C394.027 329.078 394.114 328.24 394.287 327.456C394.469 326.672 394.747 325.979 395.121 325.378C395.495 324.767 395.969 324.293 396.543 323.956C397.126 323.61 397.819 323.437 398.621 323.437C398.803 323.437 399.013 323.459 399.25 323.505C399.487 323.541 399.651 323.582 399.742 323.628ZM400.426 337.163C400.426 336.735 400.558 336.375 400.822 336.083C401.096 335.782 401.488 335.632 401.998 335.632C402.508 335.632 402.896 335.782 403.16 336.083C403.434 336.375 403.57 336.735 403.57 337.163C403.57 337.582 403.434 337.938 403.16 338.229C402.896 338.521 402.508 338.667 401.998 338.667C401.488 338.667 401.096 338.521 400.822 338.229C400.558 337.938 400.426 337.582 400.426 337.163Z" fill="#8D2C30"/>
<path d="M524.141 319.094V339H521.502V319.094H524.141ZM544.252 319.094V339H541.6L531.578 323.646V339H528.939V319.094H531.578L541.641 334.488V319.094H544.252ZM548.928 319.094H555.518C557.012 319.094 558.275 319.322 559.305 319.777C560.344 320.233 561.132 320.908 561.67 321.801C562.217 322.685 562.49 323.774 562.49 325.068C562.49 325.98 562.303 326.814 561.93 327.57C561.565 328.318 561.036 328.956 560.344 329.484C559.66 330.004 558.84 330.391 557.883 330.646L557.145 330.934H550.951L550.924 328.787H555.6C556.548 328.787 557.336 328.623 557.965 328.295C558.594 327.958 559.068 327.507 559.387 326.941C559.706 326.376 559.865 325.752 559.865 325.068C559.865 324.303 559.715 323.633 559.414 323.059C559.113 322.484 558.639 322.042 557.992 321.732C557.354 321.413 556.529 321.254 555.518 321.254H551.566V339H548.928V319.094ZM560.562 339L555.723 329.977L558.471 329.963L563.379 338.836V339H560.562ZM585.514 336.922V339H572.484V337.182L579.006 329.922C579.808 329.029 580.428 328.272 580.865 327.652C581.312 327.023 581.622 326.463 581.795 325.971C581.977 325.469 582.068 324.959 582.068 324.439C582.068 323.783 581.932 323.191 581.658 322.662C581.394 322.124 581.002 321.696 580.482 321.377C579.963 321.058 579.334 320.898 578.596 320.898C577.712 320.898 576.973 321.072 576.381 321.418C575.798 321.755 575.36 322.229 575.068 322.84C574.777 323.451 574.631 324.152 574.631 324.945H572.102C572.102 323.824 572.348 322.799 572.84 321.869C573.332 320.939 574.061 320.201 575.027 319.654C575.993 319.098 577.183 318.82 578.596 318.82C579.854 318.82 580.929 319.044 581.822 319.49C582.715 319.928 583.399 320.548 583.873 321.35C584.356 322.143 584.598 323.072 584.598 324.139C584.598 324.722 584.497 325.314 584.297 325.916C584.105 326.508 583.837 327.101 583.49 327.693C583.153 328.286 582.757 328.869 582.301 329.443C581.854 330.018 581.376 330.583 580.865 331.139L575.533 336.922H585.514ZM601.264 336.922V339H588.234V337.182L594.756 329.922C595.558 329.029 596.178 328.272 596.615 327.652C597.062 327.023 597.372 326.463 597.545 325.971C597.727 325.469 597.818 324.959 597.818 324.439C597.818 323.783 597.682 323.191 597.408 322.662C597.144 322.124 596.752 321.696 596.232 321.377C595.713 321.058 595.084 320.898 594.346 320.898C593.462 320.898 592.723 321.072 592.131 321.418C591.548 321.755 591.11 322.229 590.818 322.84C590.527 323.451 590.381 324.152 590.381 324.945H587.852C587.852 323.824 588.098 322.799 588.59 321.869C589.082 320.939 589.811 320.201 590.777 319.654C591.743 319.098 592.933 318.82 594.346 318.82C595.604 318.82 596.679 319.044 597.572 319.49C598.465 319.928 599.149 320.548 599.623 321.35C600.106 322.143 600.348 323.072 600.348 324.139C600.348 324.722 600.247 325.314 600.047 325.916C599.855 326.508 599.587 327.101 599.24 327.693C598.903 328.286 598.507 328.869 598.051 329.443C597.604 330.018 597.126 330.583 596.615 331.139L591.283 336.922H601.264ZM616.467 327.461V330.496C616.467 332.128 616.321 333.504 616.029 334.625C615.738 335.746 615.318 336.648 614.771 337.332C614.225 338.016 613.564 338.512 612.789 338.822C612.023 339.123 611.158 339.273 610.191 339.273C609.426 339.273 608.719 339.178 608.072 338.986C607.425 338.795 606.842 338.49 606.322 338.07C605.812 337.642 605.374 337.086 605.01 336.402C604.645 335.719 604.367 334.889 604.176 333.914C603.984 332.939 603.889 331.799 603.889 330.496V327.461C603.889 325.829 604.035 324.462 604.326 323.359C604.627 322.257 605.051 321.372 605.598 320.707C606.145 320.033 606.801 319.549 607.566 319.258C608.341 318.966 609.207 318.82 610.164 318.82C610.939 318.82 611.65 318.916 612.297 319.107C612.953 319.29 613.536 319.586 614.047 319.996C614.557 320.397 614.99 320.935 615.346 321.609C615.71 322.275 615.988 323.09 616.18 324.057C616.371 325.023 616.467 326.158 616.467 327.461ZM613.924 330.906V327.037C613.924 326.144 613.869 325.36 613.76 324.686C613.66 324.002 613.509 323.419 613.309 322.936C613.108 322.452 612.853 322.061 612.543 321.76C612.242 321.459 611.891 321.24 611.49 321.104C611.098 320.958 610.656 320.885 610.164 320.885C609.562 320.885 609.029 320.999 608.564 321.227C608.1 321.445 607.708 321.796 607.389 322.279C607.079 322.762 606.842 323.396 606.678 324.18C606.514 324.964 606.432 325.916 606.432 327.037V330.906C606.432 331.799 606.482 332.588 606.582 333.271C606.691 333.955 606.851 334.548 607.061 335.049C607.27 335.541 607.525 335.947 607.826 336.266C608.127 336.585 608.473 336.822 608.865 336.977C609.266 337.122 609.708 337.195 610.191 337.195C610.811 337.195 611.354 337.077 611.818 336.84C612.283 336.603 612.671 336.234 612.98 335.732C613.299 335.222 613.536 334.57 613.691 333.777C613.846 332.975 613.924 332.018 613.924 330.906Z" fill="#8D2C30"/>
<path d="M356.854 383.147L354.83 382.628L355.828 372.716H366.041V375.054H357.975L357.373 380.468C357.738 380.258 358.198 380.062 358.754 379.88C359.319 379.698 359.966 379.606 360.695 379.606C361.616 379.606 362.441 379.766 363.17 380.085C363.899 380.395 364.519 380.841 365.029 381.425C365.549 382.008 365.945 382.71 366.219 383.53C366.492 384.351 366.629 385.267 366.629 386.278C366.629 387.235 366.497 388.115 366.232 388.917C365.977 389.719 365.59 390.421 365.07 391.022C364.551 391.615 363.895 392.075 363.102 392.403C362.318 392.731 361.393 392.896 360.326 392.896C359.524 392.896 358.763 392.786 358.043 392.567C357.332 392.34 356.694 391.998 356.129 391.542C355.573 391.077 355.117 390.503 354.762 389.819C354.415 389.127 354.197 388.315 354.105 387.386H356.512C356.621 388.133 356.84 388.762 357.168 389.272C357.496 389.783 357.924 390.17 358.453 390.435C358.991 390.69 359.615 390.817 360.326 390.817C360.928 390.817 361.461 390.713 361.926 390.503C362.391 390.293 362.783 389.993 363.102 389.601C363.421 389.209 363.662 388.735 363.826 388.179C363.999 387.623 364.086 386.998 364.086 386.306C364.086 385.677 363.999 385.093 363.826 384.556C363.653 384.018 363.393 383.549 363.047 383.147C362.71 382.746 362.295 382.437 361.803 382.218C361.311 381.99 360.745 381.876 360.107 381.876C359.26 381.876 358.617 381.99 358.18 382.218C357.751 382.446 357.309 382.756 356.854 383.147ZM379.371 371.622V392.622H376.828V371.622H379.371ZM389.625 377.829V379.771H381.627V377.829H389.625ZM384.334 374.233H386.863V388.958C386.863 389.459 386.941 389.838 387.096 390.093C387.251 390.348 387.451 390.517 387.697 390.599C387.943 390.681 388.208 390.722 388.49 390.722C388.7 390.722 388.919 390.703 389.146 390.667C389.383 390.621 389.561 390.585 389.68 390.558L389.693 392.622C389.493 392.686 389.229 392.745 388.9 392.8C388.581 392.864 388.194 392.896 387.738 392.896C387.118 392.896 386.549 392.772 386.029 392.526C385.51 392.28 385.095 391.87 384.785 391.296C384.484 390.713 384.334 389.929 384.334 388.944V374.233ZM395.121 380.153V392.622H392.592V377.829H395.053L395.121 380.153ZM399.742 377.747L399.729 380.099C399.519 380.053 399.318 380.026 399.127 380.017C398.945 379.998 398.735 379.989 398.498 379.989C397.915 379.989 397.4 380.08 396.953 380.263C396.507 380.445 396.128 380.7 395.818 381.028C395.508 381.356 395.262 381.748 395.08 382.204C394.907 382.651 394.793 383.143 394.738 383.681L394.027 384.091C394.027 383.198 394.114 382.359 394.287 381.575C394.469 380.791 394.747 380.099 395.121 379.497C395.495 378.886 395.969 378.412 396.543 378.075C397.126 377.729 397.819 377.556 398.621 377.556C398.803 377.556 399.013 377.578 399.25 377.624C399.487 377.66 399.651 377.701 399.742 377.747ZM400.426 391.282C400.426 390.854 400.558 390.494 400.822 390.202C401.096 389.901 401.488 389.751 401.998 389.751C402.508 389.751 402.896 389.901 403.16 390.202C403.434 390.494 403.57 390.854 403.57 391.282C403.57 391.701 403.434 392.057 403.16 392.349C402.896 392.64 402.508 392.786 401.998 392.786C401.488 392.786 401.096 392.64 400.822 392.349C400.558 392.057 400.426 391.701 400.426 391.282Z" fill="#8D2C30"/>
<path d="M524.141 373.094V393H521.502V373.094H524.141ZM544.252 373.094V393H541.6L531.578 377.646V393H528.939V373.094H531.578L541.641 388.488V373.094H544.252ZM548.928 373.094H555.518C557.012 373.094 558.275 373.322 559.305 373.777C560.344 374.233 561.132 374.908 561.67 375.801C562.217 376.685 562.49 377.774 562.49 379.068C562.49 379.98 562.303 380.814 561.93 381.57C561.565 382.318 561.036 382.956 560.344 383.484C559.66 384.004 558.84 384.391 557.883 384.646L557.145 384.934H550.951L550.924 382.787H555.6C556.548 382.787 557.336 382.623 557.965 382.295C558.594 381.958 559.068 381.507 559.387 380.941C559.706 380.376 559.865 379.752 559.865 379.068C559.865 378.303 559.715 377.633 559.414 377.059C559.113 376.484 558.639 376.042 557.992 375.732C557.354 375.413 556.529 375.254 555.518 375.254H551.566V393H548.928V373.094ZM560.562 393L555.723 383.977L558.471 383.963L563.379 392.836V393H560.562ZM575.67 383.525L573.646 383.006L574.645 373.094H584.857V375.432H576.791L576.189 380.846C576.554 380.636 577.014 380.44 577.57 380.258C578.135 380.076 578.783 379.984 579.512 379.984C580.432 379.984 581.257 380.144 581.986 380.463C582.715 380.773 583.335 381.219 583.846 381.803C584.365 382.386 584.762 383.088 585.035 383.908C585.309 384.729 585.445 385.645 585.445 386.656C585.445 387.613 585.313 388.493 585.049 389.295C584.794 390.097 584.406 390.799 583.887 391.4C583.367 391.993 582.711 392.453 581.918 392.781C581.134 393.109 580.209 393.273 579.143 393.273C578.34 393.273 577.579 393.164 576.859 392.945C576.148 392.717 575.51 392.376 574.945 391.92C574.389 391.455 573.934 390.881 573.578 390.197C573.232 389.505 573.013 388.693 572.922 387.764H575.328C575.438 388.511 575.656 389.14 575.984 389.65C576.312 390.161 576.741 390.548 577.27 390.812C577.807 391.068 578.432 391.195 579.143 391.195C579.744 391.195 580.277 391.09 580.742 390.881C581.207 390.671 581.599 390.37 581.918 389.979C582.237 389.587 582.479 389.113 582.643 388.557C582.816 388.001 582.902 387.376 582.902 386.684C582.902 386.055 582.816 385.471 582.643 384.934C582.469 384.396 582.21 383.926 581.863 383.525C581.526 383.124 581.111 382.814 580.619 382.596C580.127 382.368 579.562 382.254 578.924 382.254C578.076 382.254 577.434 382.368 576.996 382.596C576.568 382.824 576.126 383.133 575.67 383.525ZM591.42 383.525L589.396 383.006L590.395 373.094H600.607V375.432H592.541L591.939 380.846C592.304 380.636 592.764 380.44 593.32 380.258C593.885 380.076 594.533 379.984 595.262 379.984C596.182 379.984 597.007 380.144 597.736 380.463C598.465 380.773 599.085 381.219 599.596 381.803C600.115 382.386 600.512 383.088 600.785 383.908C601.059 384.729 601.195 385.645 601.195 386.656C601.195 387.613 601.063 388.493 600.799 389.295C600.544 390.097 600.156 390.799 599.637 391.4C599.117 391.993 598.461 392.453 597.668 392.781C596.884 393.109 595.959 393.273 594.893 393.273C594.09 393.273 593.329 393.164 592.609 392.945C591.898 392.717 591.26 392.376 590.695 391.92C590.139 391.455 589.684 390.881 589.328 390.197C588.982 389.505 588.763 388.693 588.672 387.764H591.078C591.188 388.511 591.406 389.14 591.734 389.65C592.062 390.161 592.491 390.548 593.02 390.812C593.557 391.068 594.182 391.195 594.893 391.195C595.494 391.195 596.027 391.09 596.492 390.881C596.957 390.671 597.349 390.37 597.668 389.979C597.987 389.587 598.229 389.113 598.393 388.557C598.566 388.001 598.652 387.376 598.652 386.684C598.652 386.055 598.566 385.471 598.393 384.934C598.219 384.396 597.96 383.926 597.613 383.525C597.276 383.124 596.861 382.814 596.369 382.596C595.877 382.368 595.312 382.254 594.674 382.254C593.826 382.254 593.184 382.368 592.746 382.596C592.318 382.824 591.876 383.133 591.42 383.525ZM616.467 381.461V384.496C616.467 386.128 616.321 387.504 616.029 388.625C615.738 389.746 615.318 390.648 614.771 391.332C614.225 392.016 613.564 392.512 612.789 392.822C612.023 393.123 611.158 393.273 610.191 393.273C609.426 393.273 608.719 393.178 608.072 392.986C607.425 392.795 606.842 392.49 606.322 392.07C605.812 391.642 605.374 391.086 605.01 390.402C604.645 389.719 604.367 388.889 604.176 387.914C603.984 386.939 603.889 385.799 603.889 384.496V381.461C603.889 379.829 604.035 378.462 604.326 377.359C604.627 376.257 605.051 375.372 605.598 374.707C606.145 374.033 606.801 373.549 607.566 373.258C608.341 372.966 609.207 372.82 610.164 372.82C610.939 372.82 611.65 372.916 612.297 373.107C612.953 373.29 613.536 373.586 614.047 373.996C614.557 374.397 614.99 374.935 615.346 375.609C615.71 376.275 615.988 377.09 616.18 378.057C616.371 379.023 616.467 380.158 616.467 381.461ZM613.924 384.906V381.037C613.924 380.144 613.869 379.36 613.76 378.686C613.66 378.002 613.509 377.419 613.309 376.936C613.108 376.452 612.853 376.061 612.543 375.76C612.242 375.459 611.891 375.24 611.49 375.104C611.098 374.958 610.656 374.885 610.164 374.885C609.562 374.885 609.029 374.999 608.564 375.227C608.1 375.445 607.708 375.796 607.389 376.279C607.079 376.762 606.842 377.396 606.678 378.18C606.514 378.964 606.432 379.916 606.432 381.037V384.906C606.432 385.799 606.482 386.588 606.582 387.271C606.691 387.955 606.851 388.548 607.061 389.049C607.27 389.541 607.525 389.947 607.826 390.266C608.127 390.585 608.473 390.822 608.865 390.977C609.266 391.122 609.708 391.195 610.191 391.195C610.811 391.195 611.354 391.077 611.818 390.84C612.283 390.603 612.671 390.234 612.98 389.732C613.299 389.222 613.536 388.57 613.691 387.777C613.846 386.975 613.924 386.018 613.924 384.906Z" fill="#8D2C30"/>
<path d="M361.967 430.81V450.825H359.438V433.968L354.338 435.827V433.544L361.57 430.81H361.967ZM381.9 439.286V442.321C381.9 443.953 381.755 445.329 381.463 446.45C381.171 447.571 380.752 448.474 380.205 449.157C379.658 449.841 378.997 450.338 378.223 450.647C377.457 450.948 376.591 451.099 375.625 451.099C374.859 451.099 374.153 451.003 373.506 450.812C372.859 450.62 372.275 450.315 371.756 449.896C371.245 449.467 370.808 448.911 370.443 448.228C370.079 447.544 369.801 446.715 369.609 445.739C369.418 444.764 369.322 443.625 369.322 442.321V439.286C369.322 437.655 369.468 436.287 369.76 435.185C370.061 434.082 370.484 433.198 371.031 432.532C371.578 431.858 372.234 431.375 373 431.083C373.775 430.791 374.641 430.646 375.598 430.646C376.372 430.646 377.083 430.741 377.73 430.933C378.387 431.115 378.97 431.411 379.48 431.821C379.991 432.222 380.424 432.76 380.779 433.435C381.144 434.1 381.422 434.916 381.613 435.882C381.805 436.848 381.9 437.983 381.9 439.286ZM379.357 442.731V438.862C379.357 437.969 379.303 437.185 379.193 436.511C379.093 435.827 378.943 435.244 378.742 434.761C378.542 434.278 378.286 433.886 377.977 433.585C377.676 433.284 377.325 433.065 376.924 432.929C376.532 432.783 376.09 432.71 375.598 432.71C374.996 432.71 374.463 432.824 373.998 433.052C373.533 433.271 373.141 433.621 372.822 434.104C372.512 434.588 372.275 435.221 372.111 436.005C371.947 436.789 371.865 437.741 371.865 438.862V442.731C371.865 443.625 371.915 444.413 372.016 445.097C372.125 445.78 372.285 446.373 372.494 446.874C372.704 447.366 372.959 447.772 373.26 448.091C373.561 448.41 373.907 448.647 374.299 448.802C374.7 448.948 375.142 449.021 375.625 449.021C376.245 449.021 376.787 448.902 377.252 448.665C377.717 448.428 378.104 448.059 378.414 447.558C378.733 447.047 378.97 446.396 379.125 445.603C379.28 444.8 379.357 443.843 379.357 442.731ZM395.121 429.825V450.825H392.578V429.825H395.121ZM405.375 436.032V437.974H397.377V436.032H405.375ZM400.084 432.437H402.613V447.161C402.613 447.662 402.691 448.041 402.846 448.296C403.001 448.551 403.201 448.72 403.447 448.802C403.693 448.884 403.958 448.925 404.24 448.925C404.45 448.925 404.669 448.907 404.896 448.87C405.133 448.825 405.311 448.788 405.43 448.761L405.443 450.825C405.243 450.889 404.979 450.948 404.65 451.003C404.331 451.067 403.944 451.099 403.488 451.099C402.868 451.099 402.299 450.976 401.779 450.729C401.26 450.483 400.845 450.073 400.535 449.499C400.234 448.916 400.084 448.132 400.084 447.147V432.437ZM410.871 438.356V450.825H408.342V436.032H410.803L410.871 438.356ZM415.492 435.95L415.479 438.302C415.269 438.256 415.068 438.229 414.877 438.22C414.695 438.201 414.485 438.192 414.248 438.192C413.665 438.192 413.15 438.284 412.703 438.466C412.257 438.648 411.878 438.903 411.568 439.231C411.258 439.56 411.012 439.951 410.83 440.407C410.657 440.854 410.543 441.346 410.488 441.884L409.777 442.294C409.777 441.401 409.864 440.562 410.037 439.778C410.219 438.994 410.497 438.302 410.871 437.7C411.245 437.09 411.719 436.616 412.293 436.278C412.876 435.932 413.569 435.759 414.371 435.759C414.553 435.759 414.763 435.782 415 435.827C415.237 435.864 415.401 435.905 415.492 435.95ZM416.176 449.485C416.176 449.057 416.308 448.697 416.572 448.405C416.846 448.104 417.238 447.954 417.748 447.954C418.258 447.954 418.646 448.104 418.91 448.405C419.184 448.697 419.32 449.057 419.32 449.485C419.32 449.905 419.184 450.26 418.91 450.552C418.646 450.843 418.258 450.989 417.748 450.989C417.238 450.989 416.846 450.843 416.572 450.552C416.308 450.26 416.176 449.905 416.176 449.485Z" fill="#8D2C30"/>
<path d="M524.141 431.094V451H521.502V431.094H524.141ZM544.252 431.094V451H541.6L531.578 435.646V451H528.939V431.094H531.578L541.641 446.488V431.094H544.252ZM548.928 431.094H555.518C557.012 431.094 558.275 431.322 559.305 431.777C560.344 432.233 561.132 432.908 561.67 433.801C562.217 434.685 562.49 435.774 562.49 437.068C562.49 437.98 562.303 438.814 561.93 439.57C561.565 440.318 561.036 440.956 560.344 441.484C559.66 442.004 558.84 442.391 557.883 442.646L557.145 442.934H550.951L550.924 440.787H555.6C556.548 440.787 557.336 440.623 557.965 440.295C558.594 439.958 559.068 439.507 559.387 438.941C559.706 438.376 559.865 437.752 559.865 437.068C559.865 436.303 559.715 435.633 559.414 435.059C559.113 434.484 558.639 434.042 557.992 433.732C557.354 433.413 556.529 433.254 555.518 433.254H551.566V451H548.928V431.094ZM560.562 451L555.723 441.977L558.471 441.963L563.379 450.836V451H560.562ZM580.783 430.984V451H578.254V434.143L573.154 436.002V433.719L580.387 430.984H580.783ZM596.533 430.984V451H594.004V434.143L588.904 436.002V433.719L596.137 430.984H596.533ZM616.467 439.461V442.496C616.467 444.128 616.321 445.504 616.029 446.625C615.738 447.746 615.318 448.648 614.771 449.332C614.225 450.016 613.564 450.512 612.789 450.822C612.023 451.123 611.158 451.273 610.191 451.273C609.426 451.273 608.719 451.178 608.072 450.986C607.425 450.795 606.842 450.49 606.322 450.07C605.812 449.642 605.374 449.086 605.01 448.402C604.645 447.719 604.367 446.889 604.176 445.914C603.984 444.939 603.889 443.799 603.889 442.496V439.461C603.889 437.829 604.035 436.462 604.326 435.359C604.627 434.257 605.051 433.372 605.598 432.707C606.145 432.033 606.801 431.549 607.566 431.258C608.341 430.966 609.207 430.82 610.164 430.82C610.939 430.82 611.65 430.916 612.297 431.107C612.953 431.29 613.536 431.586 614.047 431.996C614.557 432.397 614.99 432.935 615.346 433.609C615.71 434.275 615.988 435.09 616.18 436.057C616.371 437.023 616.467 438.158 616.467 439.461ZM613.924 442.906V439.037C613.924 438.144 613.869 437.36 613.76 436.686C613.66 436.002 613.509 435.419 613.309 434.936C613.108 434.452 612.853 434.061 612.543 433.76C612.242 433.459 611.891 433.24 611.49 433.104C611.098 432.958 610.656 432.885 610.164 432.885C609.562 432.885 609.029 432.999 608.564 433.227C608.1 433.445 607.708 433.796 607.389 434.279C607.079 434.762 606.842 435.396 606.678 436.18C606.514 436.964 606.432 437.916 606.432 439.037V442.906C606.432 443.799 606.482 444.588 606.582 445.271C606.691 445.955 606.851 446.548 607.061 447.049C607.27 447.541 607.525 447.947 607.826 448.266C608.127 448.585 608.473 448.822 608.865 448.977C609.266 449.122 609.708 449.195 610.191 449.195C610.811 449.195 611.354 449.077 611.818 448.84C612.283 448.603 612.671 448.234 612.98 447.732C613.299 447.222 613.536 446.57 613.691 445.777C613.846 444.975 613.924 444.018 613.924 442.906ZM632.217 439.461V442.496C632.217 444.128 632.071 445.504 631.779 446.625C631.488 447.746 631.068 448.648 630.521 449.332C629.975 450.016 629.314 450.512 628.539 450.822C627.773 451.123 626.908 451.273 625.941 451.273C625.176 451.273 624.469 451.178 623.822 450.986C623.175 450.795 622.592 450.49 622.072 450.07C621.562 449.642 621.124 449.086 620.76 448.402C620.395 447.719 620.117 446.889 619.926 445.914C619.734 444.939 619.639 443.799 619.639 442.496V439.461C619.639 437.829 619.785 436.462 620.076 435.359C620.377 434.257 620.801 433.372 621.348 432.707C621.895 432.033 622.551 431.549 623.316 431.258C624.091 430.966 624.957 430.82 625.914 430.82C626.689 430.82 627.4 430.916 628.047 431.107C628.703 431.29 629.286 431.586 629.797 431.996C630.307 432.397 630.74 432.935 631.096 433.609C631.46 434.275 631.738 435.09 631.93 436.057C632.121 437.023 632.217 438.158 632.217 439.461ZM629.674 442.906V439.037C629.674 438.144 629.619 437.36 629.51 436.686C629.41 436.002 629.259 435.419 629.059 434.936C628.858 434.452 628.603 434.061 628.293 433.76C627.992 433.459 627.641 433.24 627.24 433.104C626.848 432.958 626.406 432.885 625.914 432.885C625.312 432.885 624.779 432.999 624.314 433.227C623.85 433.445 623.458 433.796 623.139 434.279C622.829 434.762 622.592 435.396 622.428 436.18C622.264 436.964 622.182 437.916 622.182 439.037V442.906C622.182 443.799 622.232 444.588 622.332 445.271C622.441 445.955 622.601 446.548 622.811 447.049C623.02 447.541 623.275 447.947 623.576 448.266C623.877 448.585 624.223 448.822 624.615 448.977C625.016 449.122 625.458 449.195 625.941 449.195C626.561 449.195 627.104 449.077 627.568 448.84C628.033 448.603 628.421 448.234 628.73 447.732C629.049 447.222 629.286 446.57 629.441 445.777C629.596 444.975 629.674 444.018 629.674 442.906Z" fill="#8D2C30"/>
</svg>
